<?xml version="1.0" encoding="UTF-8" standalone="no"?>
<!-- Created with Inkscape (http://www.inkscape.org/) -->

<svg
   width="171.2196mm"
   height="607.38098mm"
   viewBox="0 0 171.2196 607.38098"
   version="1.1"
   id="svg1"
   sodipodi:docname="bus.svg"
   inkscape:version="1.4.2 (ebf0e940, 2025-05-08)"
   xml:space="preserve"
   xmlns:inkscape="http://www.inkscape.org/namespaces/inkscape"
   xmlns:sodipodi="http://sodipodi.sourceforge.net/DTD/sodipodi-0.dtd"
   xmlns="http://www.w3.org/2000/svg"
   xmlns:svg="http://www.w3.org/2000/svg"><sodipodi:namedview
     id="namedview1"
     pagecolor="#ffffff"
     bordercolor="#000000"
     borderopacity="0.25"
     inkscape:showpageshadow="2"
     inkscape:pageopacity="0.0"
     inkscape:pagecheckerboard="0"
     inkscape:deskcolor="#d1d1d1"
     inkscape:document-units="mm"
     inkscape:zoom="0.56968033"
     inkscape:cx="171.14862"
     inkscape:cy="334.39807"
     inkscape:window-width="1440"
     inkscape:window-height="842"
     inkscape:window-x="0"
     inkscape:window-y="30"
     inkscape:window-maximized="0"
     inkscape:current-layer="svg1"
     showguides="true"
     inkscape:export-bgcolor="#ffffff00" /><defs
     id="defs1"><inkscape:path-effect
       effect="fillet_chamfer"
       id="path-effect96"
       is_visible="true"
       lpeversion="1"
       nodesatellites_param="F,0,1,1,0,0,0,1 @ F,0,0,1,0,0,0,1 @ F,0,0,1,0,0,0,1 @ F,0,0,1,0,0,0,1"
       radius="4"
       unit="px"
       method="auto"
       mode="F"
       chamfer_steps="1"
       flexible="false"
       use_knot_distance="true"
       apply_no_radius="true"
       apply_with_radius="true"
       only_selected="false"
       hide_knots="false" /><inkscape:path-effect
       effect="fillet_chamfer"
       id="path-effect92"
       is_visible="true"
       lpeversion="1"
       nodesatellites_param="F,0,0,1,0,1.0583333,0,1 @ F,0,0,1,0,1.0583333,0,1 @ F,0,0,1,0,0,0,1 @ F,0,0,1,0,0,0,1"
       radius="4"
       unit="px"
       method="auto"
       mode="F"
       chamfer_steps="1"
       flexible="false"
       use_knot_distance="true"
       apply_no_radius="true"
       apply_with_radius="true"
       only_selected="false"
       hide_knots="false" /><inkscape:path-effect
       effect="fillet_chamfer"
       id="path-effect87"
       is_visible="true"
       lpeversion="1"
       nodesatellites_param="F,0,0,1,0,1.0583333,0,1 @ F,0,0,1,0,1.0583333,0,1 @ F,0,0,1,0,0,0,1 @ F,0,0,1,0,0,0,1"
       radius="4"
       unit="px"
       method="auto"
       mode="F"
       chamfer_steps="1"
       flexible="false"
       use_knot_distance="true"
       apply_no_radius="true"
       apply_with_radius="true"
       only_selected="false"
       hide_knots="false" /><inkscape:path-effect
       effect="fillet_chamfer"
       id="path-effect83"
       is_visible="true"
       lpeversion="1"
       nodesatellites_param="F,0,0,1,0,0,0,1 @ F,0,0,1,0,0.86714123,0,1 @ F,0,0,1,0,0,0,1 @ F,0,0,1,0,0,0,1"
       radius="12"
       unit="px"
       method="auto"
       mode="F"
       chamfer_steps="1"
       flexible="false"
       use_knot_distance="true"
       apply_no_radius="true"
       apply_with_radius="true"
       only_selected="false"
       hide_knots="false" /><inkscape:path-effect
       effect="fillet_chamfer"
       id="path-effect30"
       is_visible="true"
       lpeversion="1"
       nodesatellites_param="F,0,0,1,0,2.9104166,0,1 @ F,0,0,1,0,2.9104166,0,1 @ F,0,0,1,0,2.9104166,0,1 @ F,0,0,1,0,53.612763,0,1 @ F,0,0,1,0,2.9104166,0,1"
       radius="11"
       unit="px"
       method="auto"
       mode="F"
       chamfer_steps="1"
       flexible="false"
       use_knot_distance="true"
       apply_no_radius="true"
       apply_with_radius="true"
       only_selected="false"
       hide_knots="false" /><rect
       x="174.10117"
       y="515.57031"
       width="117.34994"
       height="69.255707"
       id="rect27" /><rect
       x="-2.8856547"
       y="-201.99583"
       width="528.07483"
       height="145.24461"
       id="rect28" /><rect
       x="470.12125"
       y="-76.469849"
       width="125.28551"
       height="44.487179"
       id="rect29" /><rect
       x="174.10117"
       y="515.57031"
       width="117.34994"
       height="69.255707"
       id="rect70" /><rect
       x="174.10117"
       y="515.57031"
       width="117.34994"
       height="69.255707"
       id="rect72" /><rect
       x="-2.8856547"
       y="-201.99583"
       width="528.07483"
       height="145.24461"
       id="rect79" /><rect
       x="-2.8856547"
       y="-201.99583"
       width="220.95895"
       height="37.786671"
       id="rect80" /><rect
       x="-2.8856547"
       y="-201.99583"
       width="528.07483"
       height="145.24461"
       id="rect82" /><rect
       x="-2.8856547"
       y="-201.99583"
       width="528.07483"
       height="145.24461"
       id="rect30" /><rect
       x="174.10117"
       y="515.57031"
       width="117.34994"
       height="69.255707"
       id="rect27-6" /><rect
       x="-2.8856547"
       y="-201.99583"
       width="528.07483"
       height="145.24461"
       id="rect28-0" /><rect
       x="-2.8856547"
       y="-201.99583"
       width="528.07483"
       height="145.24461"
       id="rect1" /><rect
       x="470.12125"
       y="-76.469849"
       width="125.28551"
       height="44.487179"
       id="rect29-4" /></defs><rect
     style="fill:#1a1a1a;stroke:#000000;stroke-width:0"
     id="rect6"
     width="0.38299999"
     height="11.517297"
     x="-9.7026758"
     y="0.84888428"
     ry="0"
     transform="matrix(-0.9961947,0.08715574,0.08715574,0.9961947,0,0)" /><rect
     style="fill:#1a1a1a;stroke:#000000;stroke-width:0"
     id="rect7"
     width="0.38299999"
     height="11.517297"
     x="10.322556"
     y="-0.90309298"
     ry="0"
     transform="rotate(5)" /><rect
     style="fill:#1a1a1a;stroke:#000000;stroke-width:0"
     id="rect8"
     width="0.38299999"
     height="11.517297"
     x="-14.974206"
     y="1.3100811"
     ry="0"
     transform="matrix(-0.9961947,0.08715574,0.08715574,0.9961947,0,0)" /><rect
     style="fill:#1a1a1a;stroke:#000000;stroke-width:0"
     id="rect9"
     width="0.38299999"
     height="11.517297"
     x="15.594086"
     y="-1.3642975"
     ry="0"
     transform="rotate(5)" /><rect
     style="fill:#1a1a1a;stroke:#000000;stroke-width:0"
     id="rect10"
     width="0.38299999"
     height="11.517297"
     x="-20.245735"
     y="1.771278"
     ry="0"
     transform="matrix(-0.9961947,0.08715574,0.08715574,0.9961947,0,0)" /><rect
     style="fill:#1a1a1a;stroke:#000000;stroke-width:0"
     id="rect11"
     width="0.38299999"
     height="11.517297"
     x="20.865616"
     y="-1.8254944"
     ry="0"
     transform="rotate(5)" /><rect
     style="fill:#1a1a1a;stroke:#000000;stroke-width:0"
     id="rect12"
     width="0.38299999"
     height="11.517297"
     x="-25.517265"
     y="2.2324827"
     ry="0"
     transform="matrix(-0.9961947,0.08715574,0.08715574,0.9961947,0,0)" /><rect
     style="fill:#1a1a1a;stroke:#000000;stroke-width:0"
     id="rect13"
     width="0.38299999"
     height="11.517297"
     x="26.137146"
     y="-2.2866914"
     ry="0"
     transform="rotate(5)" /><rect
     style="fill:#1a1a1a;stroke:#000000;stroke-width:0"
     id="rect14"
     width="0.38299999"
     height="11.517297"
     x="-30.788797"
     y="2.6936872"
     ry="0"
     transform="matrix(-0.9961947,0.08715574,0.08715574,0.9961947,0,0)" /><rect
     style="fill:#1a1a1a;stroke:#000000;stroke-width:0"
     id="rect15"
     width="0.38299999"
     height="11.517297"
     x="31.408676"
     y="-2.747896"
     ry="0"
     transform="rotate(5)" /><rect
     style="fill:#1a1a1a;stroke:#000000;stroke-width:0"
     id="rect16"
     width="0.38299999"
     height="11.517297"
     x="-36.060326"
     y="3.1548765"
     ry="0"
     transform="matrix(-0.9961947,0.08715574,0.08715574,0.9961947,0,0)" /><rect
     style="fill:#1a1a1a;stroke:#000000;stroke-width:0"
     id="rect17"
     width="0.38299999"
     height="11.517297"
     x="36.680206"
     y="-3.2090929"
     ry="0"
     transform="rotate(5)" /><rect
     style="fill:#1a1a1a;stroke:#000000;stroke-width:0"
     id="rect18"
     width="0.38299999"
     height="11.517297"
     x="-41.331856"
     y="3.616081"
     ry="0"
     transform="matrix(-0.9961947,0.08715574,0.08715574,0.9961947,0,0)" /><rect
     style="fill:#1a1a1a;stroke:#000000;stroke-width:0"
     id="rect19"
     width="0.38299999"
     height="11.517297"
     x="41.951752"
     y="-3.6702898"
     ry="0"
     transform="rotate(5)" /><rect
     style="fill:#1a1a1a;stroke:#000000;stroke-width:0"
     id="rect20"
     width="0.38299999"
     height="11.517297"
     x="-46.603386"
     y="4.0772777"
     ry="0"
     transform="matrix(-0.9961947,0.08715574,0.08715574,0.9961947,0,0)" /><rect
     style="fill:#1a1a1a;stroke:#000000;stroke-width:0"
     id="rect21"
     width="0.38299999"
     height="11.517297"
     x="47.223282"
     y="-4.1314864"
     ry="0"
     transform="rotate(5)" /><rect
     style="fill:#1a1a1a;stroke:#000000;stroke-width:0"
     id="rect22"
     width="0.38299999"
     height="11.517297"
     x="-51.874916"
     y="4.5384746"
     ry="0"
     transform="matrix(-0.9961947,0.08715574,0.08715574,0.9961947,0,0)" /><rect
     style="fill:#1a1a1a;stroke:#000000;stroke-width:0"
     id="rect23"
     width="0.38299999"
     height="11.517297"
     x="52.494812"
     y="-4.5926909"
     ry="0"
     transform="rotate(5)" /><rect
     style="fill:#1a1a1a;stroke:#000000;stroke-width:0"
     id="rect5"
     width="0.38299999"
     height="11.517297"
     x="-4.4311452"
     y="0.38768736"
     ry="0"
     transform="matrix(-0.9961947,0.08715574,0.08715574,0.9961947,0,0)" /><rect
     style="fill:#1a1a1a;stroke:#000000;stroke-width:0"
     id="rect34"
     width="0.38299999"
     height="11.517297"
     x="5.0510259"
     y="-0.44189608"
     ry="0"
     transform="rotate(5)" /><rect
     style="fill:#1a1a1a;stroke:#000000;stroke-width:0"
     id="rect24"
     width="0.38299999"
     height="11.517297"
     x="-57.146446"
     y="4.9996715"
     ry="0"
     transform="matrix(-0.9961947,0.08715574,0.08715574,0.9961947,0,0)" /><rect
     style="fill:#1a1a1a;stroke:#000000;stroke-width:0"
     id="rect25"
     width="0.38299999"
     height="11.517297"
     x="57.766327"
     y="-5.0538878"
     ry="0"
     transform="rotate(5)" /><rect
     style="fill:#1a1a1a;stroke:#000000;stroke-width:0"
     id="rect26"
     width="0.38299999"
     height="11.517297"
     x="-62.417976"
     y="5.460876"
     ry="0"
     transform="matrix(-0.9961947,0.08715574,0.08715574,0.9961947,0,0)" /><rect
     style="fill:#1a1a1a;stroke:#000000;stroke-width:0"
     id="rect31"
     width="0.38299999"
     height="11.517297"
     x="63.037857"
     y="-5.5150847"
     ry="0"
     transform="rotate(5)" /><rect
     style="fill:#1a1a1a;stroke:#000000;stroke-width:0"
     id="rect32"
     width="0.38299999"
     height="11.517297"
     x="-67.689507"
     y="5.9220729"
     ry="0"
     transform="matrix(-0.9961947,0.08715574,0.08715574,0.9961947,0,0)" /><rect
     style="fill:#1a1a1a;stroke:#000000;stroke-width:0"
     id="rect33"
     width="0.38299999"
     height="11.517297"
     x="68.309387"
     y="-5.9762893"
     ry="0"
     transform="rotate(5)" /><rect
     style="fill:#1a1a1a;stroke:#000000;stroke-width:0"
     id="rect35"
     width="0.38299999"
     height="11.517297"
     x="-72.961037"
     y="6.3832779"
     ry="0"
     transform="matrix(-0.9961947,0.08715574,0.08715574,0.9961947,0,0)" /><rect
     style="fill:#1a1a1a;stroke:#000000;stroke-width:0"
     id="rect36"
     width="0.38299999"
     height="11.517297"
     x="73.580917"
     y="-6.4374862"
     ry="0"
     transform="rotate(5)" /><rect
     style="fill:#1a1a1a;stroke:#000000;stroke-width:0"
     id="rect37"
     width="0.38299999"
     height="11.517297"
     x="-78.232567"
     y="6.8444748"
     ry="0"
     transform="matrix(-0.9961947,0.08715574,0.08715574,0.9961947,0,0)" /><rect
     style="fill:#1a1a1a;stroke:#000000;stroke-width:0"
     id="rect38"
     width="0.38299999"
     height="11.517297"
     x="78.852448"
     y="-6.8986831"
     ry="0"
     transform="rotate(5)" /><rect
     style="fill:#1a1a1a;stroke:#000000;stroke-width:0"
     id="rect39"
     width="0.38299999"
     height="11.517297"
     x="-83.504097"
     y="7.3056712"
     ry="0"
     transform="matrix(-0.9961947,0.08715574,0.08715574,0.9961947,0,0)" /><rect
     style="fill:#1a1a1a;stroke:#000000;stroke-width:0"
     id="rect40"
     width="0.38299999"
     height="11.517297"
     x="84.123985"
     y="-7.3598876"
     ry="0"
     transform="rotate(5)" /><rect
     style="fill:#1a1a1a;stroke:#000000;stroke-width:0"
     id="rect41"
     width="0.38299999"
     height="11.517297"
     x="-88.775627"
     y="7.766861"
     ry="0"
     transform="matrix(-0.9961947,0.08715574,0.08715574,0.9961947,0,0)" /><rect
     style="fill:#1a1a1a;stroke:#000000;stroke-width:0"
     id="rect42"
     width="0.38299999"
     height="11.517297"
     x="89.395515"
     y="-7.8210845"
     ry="0"
     transform="rotate(5)" /><rect
     style="fill:#1a1a1a;stroke:#000000;stroke-width:0"
     id="rect43"
     width="0.38299999"
     height="11.517297"
     x="-94.047157"
     y="8.2280731"
     ry="0"
     transform="matrix(-0.9961947,0.08715574,0.08715574,0.9961947,0,0)" /><rect
     style="fill:#1a1a1a;stroke:#000000;stroke-width:0"
     id="rect44"
     width="0.38299999"
     height="11.517297"
     x="94.667053"
     y="-8.2822819"
     ry="0"
     transform="rotate(5)" /><rect
     style="fill:#1a1a1a;stroke:#000000;stroke-width:0"
     id="rect45"
     width="0.38299999"
     height="11.517297"
     x="-99.318687"
     y="8.6892776"
     ry="0"
     transform="matrix(-0.9961947,0.08715574,0.08715574,0.9961947,0,0)" /><rect
     style="fill:#1a1a1a;stroke:#000000;stroke-width:0"
     id="rect46"
     width="0.38299999"
     height="11.517297"
     x="99.938583"
     y="-8.7434788"
     ry="0"
     transform="rotate(5)" /><rect
     style="fill:#1a1a1a;stroke:#000000;stroke-width:0"
     id="rect47"
     width="0.38299999"
     height="11.517297"
     x="-104.59022"
     y="9.1504669"
     ry="0"
     transform="matrix(-0.9961947,0.08715574,0.08715574,0.9961947,0,0)" /><rect
     style="fill:#1a1a1a;stroke:#000000;stroke-width:0"
     id="rect48"
     width="0.38299999"
     height="11.517297"
     x="105.21011"
     y="-9.2046833"
     ry="0"
     transform="rotate(5)" /><rect
     style="fill:#1a1a1a;stroke:#000000;stroke-width:0"
     id="rect49"
     width="0.38299999"
     height="11.517297"
     x="-109.86175"
     y="9.6116638"
     ry="0"
     transform="matrix(-0.9961947,0.08715574,0.08715574,0.9961947,0,0)" /><rect
     style="fill:#1a1a1a;stroke:#000000;stroke-width:0"
     id="rect50"
     width="0.38299999"
     height="11.517297"
     x="110.48164"
     y="-9.6658802"
     ry="0"
     transform="rotate(5)" /><rect
     style="fill:#1a1a1a;stroke:#000000;stroke-width:0"
     id="rect51"
     width="0.38299999"
     height="11.517297"
     x="-115.13329"
     y="10.072868"
     ry="0"
     transform="matrix(-0.9961947,0.08715574,0.08715574,0.9961947,0,0)" /><rect
     style="fill:#1a1a1a;stroke:#000000;stroke-width:0"
     id="rect52"
     width="0.38299999"
     height="11.517297"
     x="115.75317"
     y="-10.127077"
     ry="0"
     transform="rotate(5)" /><rect
     style="fill:#1a1a1a;stroke:#000000;stroke-width:0"
     id="rect53"
     width="0.38299999"
     height="11.517297"
     x="-120.40482"
     y="10.534065"
     ry="0"
     transform="matrix(-0.9961947,0.08715574,0.08715574,0.9961947,0,0)" /><rect
     style="fill:#1a1a1a;stroke:#000000;stroke-width:0"
     id="rect54"
     width="0.38299999"
     height="11.517297"
     x="121.0247"
     y="-10.588282"
     ry="0"
     transform="rotate(5)" /><rect
     style="fill:#1a1a1a;stroke:#000000;stroke-width:0"
     id="rect55"
     width="0.38299999"
     height="11.517297"
     x="-125.67635"
     y="10.995262"
     ry="0"
     transform="matrix(-0.9961947,0.08715574,0.08715574,0.9961947,0,0)" /><rect
     style="fill:#1a1a1a;stroke:#000000;stroke-width:0"
     id="rect56"
     width="0.38299999"
     height="11.517297"
     x="126.29625"
     y="-11.049479"
     ry="0"
     transform="rotate(5)" /><rect
     style="fill:#1a1a1a;stroke:#000000;stroke-width:0"
     id="rect57"
     width="0.38299999"
     height="11.517297"
     x="-130.94791"
     y="11.456467"
     ry="0"
     transform="matrix(-0.9961947,0.08715574,0.08715574,0.9961947,0,0)" /><rect
     style="fill:#1a1a1a;stroke:#000000;stroke-width:0"
     id="rect58"
     width="0.38299999"
     height="11.517297"
     x="131.56778"
     y="-11.510675"
     ry="0"
     transform="rotate(5)" /><rect
     style="fill:#1a1a1a;stroke:#000000;stroke-width:0"
     id="rect59"
     width="0.38299999"
     height="11.517297"
     x="-136.21944"
     y="11.917664"
     ry="0"
     transform="matrix(-0.9961947,0.08715574,0.08715574,0.9961947,0,0)" /><rect
     style="fill:#1a1a1a;stroke:#000000;stroke-width:0"
     id="rect60"
     width="0.38299999"
     height="11.517297"
     x="136.83931"
     y="-11.97188"
     ry="0"
     transform="rotate(5)" /><rect
     style="fill:#1a1a1a;stroke:#000000;stroke-width:0"
     id="rect61"
     width="0.38299999"
     height="11.517297"
     x="-141.49098"
     y="12.378868"
     ry="0"
     transform="matrix(-0.9961947,0.08715574,0.08715574,0.9961947,0,0)" /><rect
     style="fill:#1a1a1a;stroke:#000000;stroke-width:0"
     id="rect62"
     width="0.38299999"
     height="11.517297"
     x="142.11084"
     y="-12.433077"
     ry="0"
     transform="rotate(5)" /><path
     id="path7"
     style="fill:#2c3349;fill-opacity:1;stroke-width:0.0864647"
     d="m 141.12304,10.540428 v 52.800095 h 14.38617 V 10.540428 Z" /><text
     xml:space="preserve"
     style="font-style:normal;font-variant:normal;font-weight:bold;font-stretch:normal;font-size:7.7611px;font-family:Arial;-inkscape-font-specification:'Arial Bold';text-align:start;writing-mode:lr-tb;direction:ltr;text-anchor:start;fill:#ffffff;fill-opacity:1;stroke-width:0"
     x="41.996292"
     y="75.484848"
     id="text81"><tspan
       sodipodi:role="line"
       id="tspan81"
       style="stroke-width:0"
       x="41.996292"
       y="75.484848" /></text><path
     style="fill:#c1c5d7;fill-opacity:1;stroke-width:0"
     d="M 1.0666233,0.00822516 H 146.09099 a 1.0272961,1.0272961 45.852583 0 1 1.02684,1.05786464 L 145.03265,71.110088 H 2.1166667 L 0.03965887,1.0660935 A 1.0274158,1.0274158 134.15076 0 1 1.0666233,0.00822516 Z"
     id="path75"
     sodipodi:nodetypes="ccccc"
     inkscape:path-effect="#path-effect87"
     inkscape:original-d="M 0.00829,0.00822516 H 147.14932 L 145.03265,71.110088 H 2.1166667 Z"
     transform="matrix(1,0,0,0.82672748,-0.00828982,8.2228181)" /><rect
     style="fill:#cdcfde;fill-opacity:1;stroke-width:0"
     id="rect86"
     width="147.10406"
     height="3.6654251"
     x="0.036975689"
     y="8.2296171" /><text
     xml:space="preserve"
     style="font-size:9.17222px;font-family:'Alfa Slab One';-inkscape-font-specification:'Alfa Slab One';text-align:start;writing-mode:lr-tb;direction:ltr;text-anchor:start;fill:#2c3349;fill-opacity:1;stroke-width:0"
     x="14.738739"
     y="34.878365"
     id="stop-text"><tspan
       sodipodi:role="line"
       id="tspan75"
       style="font-style:normal;font-variant:normal;font-weight:bold;font-stretch:normal;font-size:9.17222px;font-family:'Noto Sans JP';-inkscape-font-specification:'Noto Sans JP Bold';fill:#2c3349;fill-opacity:1;stroke-width:0"
       x="14.738739"
       y="34.878365">Keerkringpark</tspan></text><text
     xml:space="preserve"
     style="font-style:normal;font-variant:normal;font-weight:bold;font-stretch:normal;font-size:5.64444px;font-family:'Noto Sans JP';-inkscape-font-specification:'Noto Sans JP Bold';text-align:start;writing-mode:lr-tb;direction:ltr;text-anchor:start;fill:#2c3349;fill-opacity:1;stroke-width:0"
     x="14.738739"
     y="45.990868"
     id="text76"><tspan
       sodipodi:role="line"
       id="tspan76"
       style="font-style:normal;font-variant:normal;font-weight:bold;font-stretch:normal;font-size:5.64444px;font-family:'Noto Sans JP';-inkscape-font-specification:'Noto Sans JP Bold';fill:#2c3349;fill-opacity:1;stroke-width:0"
       x="14.738739"
       y="45.990868">Bus</tspan></text><text
     xml:space="preserve"
     style="font-style:normal;font-variant:normal;font-weight:bold;font-stretch:normal;font-size:5.64444px;font-family:'Noto Sans JP';-inkscape-font-specification:'Noto Sans JP Bold';text-align:start;writing-mode:lr-tb;direction:ltr;text-anchor:start;fill:#2c3349;fill-opacity:1;stroke-width:0"
     x="36.434494"
     y="45.990868"
     id="text77"><tspan
       sodipodi:role="line"
       id="tspan77"
       style="font-style:normal;font-variant:normal;font-weight:bold;font-stretch:normal;font-size:5.64444px;font-family:'Noto Sans JP';-inkscape-font-specification:'Noto Sans JP Bold';fill:#2c3349;fill-opacity:1;stroke-width:0"
       x="36.434494"
       y="45.990868">Richting</tspan></text><text
     xml:space="preserve"
     style="font-size:5.64444px;font-family:'Alfa Slab One';-inkscape-font-specification:'Alfa Slab One';text-align:start;writing-mode:lr-tb;direction:ltr;text-anchor:start;fill:#2c3349;fill-opacity:1;stroke-width:0"
     x="111.04694"
     y="45.990868"
     id="text78"><tspan
       sodipodi:role="line"
       id="tspan78"
       style="font-style:normal;font-variant:normal;font-weight:bold;font-stretch:normal;font-size:5.64444px;font-family:'Noto Sans JP';-inkscape-font-specification:'Noto Sans JP Bold';fill:#2c3349;fill-opacity:1;stroke-width:0"
       x="111.04694"
       y="45.990868">Vertrek</tspan></text><path
     id="path85"
     style="fill:#2c3349;fill-opacity:1;stroke-width:0.115519"
     d="M 12.38962,49.62297 V 60.734986 H 134.40621 V 49.62297 Z" /><path
     id="path78"
     style="fill:#62657b;fill-opacity:1;stroke-width:0.0921606"
     d="m 15.04108,51.364982 v 7.393869 h 116.71367 v -7.393869 z" /><text
     xml:space="preserve"
     transform="matrix(0.31828323,0,0,0.31828323,16.16978,112.74748)"
     id="line-text"
     style="font-style:normal;font-variant:normal;font-weight:normal;font-stretch:normal;font-size:32px;font-family:VT323;-inkscape-font-specification:VT323;text-align:start;letter-spacing:0px;writing-mode:lr-tb;direction:ltr;white-space:pre;shape-inside:url(#rect79);display:inline;fill:#d79796;fill-opacity:1;stroke:#000000;stroke-width:0;stroke-dasharray:none;stroke-opacity:1"><tspan
       x="-2.8847656"
       y="-172.39609"
       id="tspan1">170</tspan></text><text
     xml:space="preserve"
     transform="matrix(0.31828323,0,0,0.31828323,37.33646,112.74748)"
     id="destination-text"
     style="font-style:normal;font-variant:normal;font-weight:normal;font-stretch:normal;font-size:32px;font-family:VT323;-inkscape-font-specification:VT323;text-align:start;letter-spacing:0px;writing-mode:lr-tb;direction:ltr;white-space:pre;shape-inside:url(#rect80);display:inline;fill:#d79796;fill-opacity:1;stroke:#000000;stroke-width:0;stroke-dasharray:none;stroke-opacity:1"><tspan
       x="-2.8847656"
       y="-172.39609"
       id="tspan2">Amsterdam CS</tspan></text><text
     xml:space="preserve"
     transform="matrix(0.31828323,0,0,0.31828323,-35.15944,112.74748)"
     id="timer-text"
     style="font-style:normal;font-variant:normal;font-weight:normal;font-stretch:normal;font-size:32px;font-family:VT323;-inkscape-font-specification:VT323;text-align:start;letter-spacing:0px;writing-mode:lr-tb;direction:ltr;white-space:pre;shape-inside:url(#rect82);display:inline;fill:#d79796;fill-opacity:1;stroke:#000000;stroke-width:0;stroke-dasharray:none;stroke-opacity:1"
     x="61.216003"
     y="0"><tspan
       x="461.18951"
       y="-172.39609"
       id="tspan4"><tspan
         style="text-align:end;text-anchor:end"
         id="tspan3">6 min</tspan></tspan></text><path
     style="fill:#ffffff;fill-opacity:1;stroke-width:0"
     id="linecolor"
     width="47.014999"
     height="20.845783"
     x="-300.95425"
     y="-28.883347"
     transform="matrix(-0.65352765,0,0,-0.65352765,-150.69506,2.9686231)"
     sodipodi:type="rect"
     ry="0"
     d="m -300.95425,-28.883347 h 46.14785 a 0.86714123,0.86714123 45 0 1 0.86715,0.867142 v 19.9786417 h -47.015 z"
     inkscape:path-effect="#path-effect83" /><g
     id="linetextcolor"
     transform="matrix(0.65352765,0,0,0.65352765,-150.35836,2.7331591)"
     style="fill:#404a4c;fill-opacity:1"><path
       d="m 289.07345,23.871441 c 0,1.383472 -1.12212,2.504217 -2.50421,2.504217 -1.38348,0 -2.50421,-1.120745 -2.50421,-2.504217 0,-1.382078 1.12073,-2.504217 2.50421,-2.504217 1.38209,0 2.50421,1.122139 2.50421,2.504217 z"
       id="linetextcolor-2"
       style="fill:#404a4c;fill-opacity:1;stroke-width:0.357744" /><path
       d="m 293.9159,11.266024 h -32.04722 c -1.05469,0 -1.92112,0.667653 -2.03288,1.525156 l -0.75315,5.431825 c -0.0383,0.222134 -0.0383,0.476532 -0.0383,0.698658 V 23.0192 c 0,0.413249 0.41482,0.761943 0.90319,0.761943 h 2.25943 c -0.075,-1.144184 0.56486,-2.256091 1.69459,-2.85919 1.35626,-0.730935 3.12585,-0.603098 4.3306,0.222134 1.39302,0.985341 1.35626,2.445942 1.35626,2.637062 h 13.32996 c -0.075,-1.27075 0.71491,-2.445941 2.03291,-2.985757 1.65632,-0.698658 3.27589,0.03226 3.38916,0.06329 1.20474,0.572092 1.92114,1.715006 1.88288,2.922473 h 2.86256 c 0.97969,0 1.73285,-0.667652 1.73285,-1.461871 V 12.027789 c 0,-0.413249 -0.41485,-0.761943 -0.90319,-0.761943 z m -28.35642,7.274414 c 0,0.222134 -0.22652,0.380972 -0.45157,0.380972 h -3.80415 c -0.33833,0 -0.60313,-0.254398 -0.56486,-0.539815 l 0.67812,-4.669693 c 0.0383,-0.254398 0.30157,-0.444254 0.60313,-0.444254 h 3.0876 c 0.26331,0 0.4516,0.191108 0.4516,0.38097 z m 7.53149,-1.303028 c 0,0.254399 -0.22652,0.444255 -0.52659,0.444255 l -4.21877,0.0012 c -0.30154,0 -0.52659,-0.191109 -0.52659,-0.444255 v -3.494565 c 0,-0.254398 0.22652,-0.444255 0.52659,-0.444255 h 4.25568 c 0.30154,0 0.52659,0.191108 0.52659,0.444255 v 3.493294 z m 6.59006,0 c 0,0.254399 -0.22654,0.444255 -0.52661,0.444255 l -4.25566,0.0012 c -0.30155,0 -0.52659,-0.191109 -0.52659,-0.444255 v -3.494565 c 0,-0.254398 0.22652,-0.444255 0.52659,-0.444255 h 4.25566 c 0.30156,0 0.52661,0.191108 0.52661,0.444255 z m 6.55163,0 c 0,0.254399 -0.22653,0.444255 -0.5266,0.444255 l -4.21725,0.0012 c -0.30155,0 -0.52661,-0.191109 -0.52661,-0.444255 v -3.494565 c 0,-0.254398 0.22654,-0.444255 0.52661,-0.444255 h 4.25565 c 0.30157,0 0.52662,0.191108 0.52662,0.444255 v 3.493294 z m 6.55315,0 c 0,0.254399 -0.22653,0.444255 -0.5266,0.444255 l -4.25718,0.0012 c -0.30154,0 -0.52659,-0.191109 -0.52659,-0.444255 v -3.494565 c 0,-0.254398 0.22652,-0.444255 0.52659,-0.444255 h 4.25567 c 0.30154,0 0.52659,0.191108 0.52659,0.444255 z"
       id="linetextcolor-3"
       style="fill:#404a4c;fill-opacity:1;stroke-width:0.34588" /><path
       d="m 268.37187,23.871441 c 0,1.383472 -1.12212,2.504217 -2.50421,2.504217 -1.38348,0 -2.50421,-1.120745 -2.50421,-2.504217 0,-1.382078 1.12073,-2.504217 2.50421,-2.504217 1.38209,0 2.50421,1.122139 2.50421,2.504217 z"
       id="linetextcolor-1"
       style="fill:#404a4c;fill-opacity:1;stroke-width:0.357744" /></g><rect
     style="fill:#1a1a1a;stroke:#000000;stroke-width:0"
     id="rect96"
     width="0.38299999"
     height="11.517297"
     x="-151.50688"
     y="13.255146"
     ry="0"
     transform="matrix(-0.9961947,0.08715574,0.08715574,0.9961947,0,0)" /><rect
     style="fill:#1a1a1a;stroke:#000000;stroke-width:0"
     id="rect97"
     width="0.38299999"
     height="11.517297"
     x="152.12674"
     y="-13.309355"
     ry="0"
     transform="rotate(5)" /><rect
     style="fill:#1a1a1a;stroke:#000000;stroke-width:0"
     id="rect98"
     width="0.38299999"
     height="11.517297"
     x="-156.77841"
     y="13.716345"
     ry="0"
     transform="matrix(-0.9961947,0.08715574,0.08715574,0.9961947,0,0)" /><rect
     style="fill:#1a1a1a;stroke:#000000;stroke-width:0"
     id="rect99"
     width="0.38299999"
     height="11.517297"
     x="157.39827"
     y="-13.770554"
     ry="0"
     transform="rotate(5)" /><rect
     style="fill:#1a1a1a;stroke:#000000;stroke-width:0"
     id="rect100"
     width="0.38299999"
     height="11.517297"
     x="-162.04994"
     y="14.177544"
     ry="0"
     transform="matrix(-0.9961947,0.08715574,0.08715574,0.9961947,0,0)" /><rect
     style="fill:#1a1a1a;stroke:#000000;stroke-width:0"
     id="rect101"
     width="0.38299999"
     height="11.517297"
     x="162.6698"
     y="-14.231752"
     ry="0"
     transform="rotate(5)" /><rect
     style="fill:#1a1a1a;stroke:#000000;stroke-width:0"
     id="rect102"
     width="0.38299999"
     height="11.517297"
     x="-167.32147"
     y="14.638743"
     ry="0"
     transform="matrix(-0.9961947,0.08715574,0.08715574,0.9961947,0,0)" /><rect
     style="fill:#1a1a1a;stroke:#000000;stroke-width:0"
     id="rect103"
     width="0.38299999"
     height="11.517297"
     x="167.94133"
     y="-14.692951"
     ry="0"
     transform="rotate(5)" /><rect
     style="fill:#c1c5d7;fill-opacity:1;stroke-width:0"
     id="rect75"
     width="21.924509"
     height="599.15137"
     x="149.29509"
     y="8.2296171" /><path
     style="fill:#afb5cc;fill-opacity:1;stroke-width:0"
     d="M 171.2196,8.2296173 C 157.38833,207.93698 153.29506,407.38233 155.01895,607.38099 h 16.20065 z"
     id="path84"
     sodipodi:nodetypes="cccc" /><rect
     style="fill:#cdcfde;fill-opacity:1;stroke-width:0"
     id="rect87"
     width="21.924513"
     height="3.6654251"
     x="149.29509"
     y="8.2296171" /><path
     style="fill:#afb5cc;fill-opacity:1;stroke-width:0"
     d="m 149.29509,89.761381 5.74869,-10.34348 -3.873,-61.981665 -1.87569,-9.2066179 z"
     id="path87"
     sodipodi:nodetypes="ccccc" /></svg>
