<?xml version="1.0" encoding="UTF-8" standalone="no"?>
<!-- Created with Inkscape (http://www.inkscape.org/) -->

<svg
   width="180.74205mm"
   height="599.02704mm"
   viewBox="0 0 180.74205 599.02704"
   version="1.1"
   id="svg1"
   sodipodi:docname="veerpont.svg"
   inkscape:version="1.4.2 (ebf0e940, 2025-05-08)"
   xmlns:inkscape="http://www.inkscape.org/namespaces/inkscape"
   xmlns:sodipodi="http://sodipodi.sourceforge.net/DTD/sodipodi-0.dtd"
   xmlns="http://www.w3.org/2000/svg"
   xmlns:svg="http://www.w3.org/2000/svg">
  <sodipodi:namedview
     id="namedview1"
     pagecolor="#ffffff"
     bordercolor="#000000"
     borderopacity="0.25"
     inkscape:showpageshadow="2"
     inkscape:pageopacity="0.0"
     inkscape:pagecheckerboard="0"
     inkscape:deskcolor="#d1d1d1"
     inkscape:document-units="mm"
     inkscape:zoom="0.55803876"
     inkscape:cx="118.27135"
     inkscape:cy="1244.5372"
     inkscape:window-width="1728"
     inkscape:window-height="1382"
     inkscape:window-x="0"
     inkscape:window-y="-510"
     inkscape:window-maximized="0"
     inkscape:current-layer="svg1" />
  <defs
     id="defs1">
    <rect
       x="174.10117"
       y="515.57031"
       width="117.34994"
       height="69.255707"
       id="rect27" />
    <rect
       x="-2.8856547"
       y="-201.99583"
       width="528.07483"
       height="145.24461"
       id="rect28" />
    <rect
       x="470.12125"
       y="-76.469849"
       width="125.28551"
       height="44.487179"
       id="rect29" />
  </defs>
  <rect
     style="fill:#828aaf;fill-opacity:1;stroke:#ffffff;stroke-width:0;stroke-linecap:round;stroke-linejoin:bevel;stroke-opacity:1;paint-order:markers stroke fill"
     id="rect218"
     width="7.6178403"
     height="0.51676434"
     x="173.08728"
     y="37.840195" />
  <rect
     style="fill:#828aaf;fill-opacity:1;stroke-width:0"
     id="rect215"
     width="3.6485124"
     height="7.7683063"
     x="170.19513"
     y="18.494942" />
  <rect
     style="display:inline;fill:#828aaf;fill-opacity:1;stroke-width:0"
     id="rect216"
     width="3.6485124"
     height="7.7683063"
     x="6.153439"
     y="18.494942" />
  <rect
     style="fill:#1a1a1a;stroke:#000000;stroke-width:0"
     id="rect6"
     width="0.38299999"
     height="11.517297"
     x="-21.1632"
     y="1.8515409"
     ry="0"
     transform="matrix(-0.9961947,0.08715574,0.08715574,0.9961947,0,0)" />
  <rect
     style="fill:#1a1a1a;stroke:#000000;stroke-width:0"
     id="rect7"
     width="0.38299999"
     height="11.517297"
     x="21.783087"
     y="-1.9057723"
     ry="0"
     transform="rotate(5)" />
  <rect
     style="fill:#1a1a1a;stroke:#000000;stroke-width:0"
     id="rect8"
     width="0.38299999"
     height="11.517297"
     x="-26.434731"
     y="2.3127401"
     ry="0"
     transform="matrix(-0.9961947,0.08715574,0.08715574,0.9961947,0,0)" />
  <rect
     style="fill:#1a1a1a;stroke:#000000;stroke-width:0"
     id="rect9"
     width="0.38299999"
     height="11.517297"
     x="27.054617"
     y="-2.3669715"
     ry="0"
     transform="rotate(5)" />
  <rect
     style="fill:#1a1a1a;stroke:#000000;stroke-width:0"
     id="rect10"
     width="0.38299999"
     height="11.517297"
     x="-31.706261"
     y="2.7739391"
     ry="0"
     transform="matrix(-0.9961947,0.08715574,0.08715574,0.9961947,0,0)" />
  <rect
     style="fill:#1a1a1a;stroke:#000000;stroke-width:0"
     id="rect11"
     width="0.38299999"
     height="11.517297"
     x="32.326149"
     y="-2.8281705"
     ry="0"
     transform="rotate(5)" />
  <rect
     style="fill:#1a1a1a;stroke:#000000;stroke-width:0"
     id="rect12"
     width="0.38299999"
     height="11.517297"
     x="-36.977791"
     y="3.2351382"
     ry="0"
     transform="matrix(-0.9961947,0.08715574,0.08715574,0.9961947,0,0)" />
  <rect
     style="fill:#1a1a1a;stroke:#000000;stroke-width:0"
     id="rect13"
     width="0.38299999"
     height="11.517297"
     x="37.597679"
     y="-3.2893698"
     ry="0"
     transform="rotate(5)" />
  <rect
     style="fill:#1a1a1a;stroke:#000000;stroke-width:0"
     id="rect14"
     width="0.38299999"
     height="11.517297"
     x="-42.249321"
     y="3.6963375"
     ry="0"
     transform="matrix(-0.9961947,0.08715574,0.08715574,0.9961947,0,0)" />
  <rect
     style="fill:#1a1a1a;stroke:#000000;stroke-width:0"
     id="rect15"
     width="0.38299999"
     height="11.517297"
     x="42.869209"
     y="-3.7505689"
     ry="0"
     transform="rotate(5)" />
  <rect
     style="fill:#1a1a1a;stroke:#000000;stroke-width:0"
     id="rect16"
     width="0.38299999"
     height="11.517297"
     x="-47.520851"
     y="4.157537"
     ry="0"
     transform="matrix(-0.9961947,0.08715574,0.08715574,0.9961947,0,0)" />
  <rect
     style="fill:#1a1a1a;stroke:#000000;stroke-width:0"
     id="rect17"
     width="0.38299999"
     height="11.517297"
     x="48.140739"
     y="-4.2117677"
     ry="0"
     transform="rotate(5)" />
  <rect
     style="fill:#1a1a1a;stroke:#000000;stroke-width:0"
     id="rect18"
     width="0.38299999"
     height="11.517297"
     x="-52.792381"
     y="4.6187363"
     ry="0"
     transform="matrix(-0.9961947,0.08715574,0.08715574,0.9961947,0,0)" />
  <rect
     style="fill:#1a1a1a;stroke:#000000;stroke-width:0"
     id="rect19"
     width="0.38299999"
     height="11.517297"
     x="53.412273"
     y="-4.672967"
     ry="0"
     transform="rotate(5)" />
  <rect
     style="fill:#1a1a1a;stroke:#000000;stroke-width:0"
     id="rect20"
     width="0.38299999"
     height="11.517297"
     x="-58.063911"
     y="5.0799351"
     ry="0"
     transform="matrix(-0.9961947,0.08715574,0.08715574,0.9961947,0,0)" />
  <rect
     style="fill:#1a1a1a;stroke:#000000;stroke-width:0"
     id="rect21"
     width="0.38299999"
     height="11.517297"
     x="58.683804"
     y="-5.1341662"
     ry="0"
     transform="rotate(5)" />
  <rect
     style="fill:#1a1a1a;stroke:#000000;stroke-width:0"
     id="rect22"
     width="0.38299999"
     height="11.517297"
     x="-63.335445"
     y="5.5411344"
     ry="0"
     transform="matrix(-0.9961947,0.08715574,0.08715574,0.9961947,0,0)" />
  <rect
     style="fill:#1a1a1a;stroke:#000000;stroke-width:0"
     id="rect23"
     width="0.38299999"
     height="11.517297"
     x="63.955334"
     y="-5.5953655"
     ry="0"
     transform="rotate(5)" />
  <rect
     style="fill:#1a1a1a;stroke:#000000;stroke-width:0"
     id="rect5"
     width="0.38299999"
     height="11.517297"
     x="-15.891669"
     y="1.3903418"
     ry="0"
     transform="matrix(-0.9961947,0.08715574,0.08715574,0.9961947,0,0)" />
  <rect
     style="fill:#1a1a1a;stroke:#000000;stroke-width:0"
     id="rect34"
     width="0.38299999"
     height="11.517297"
     x="16.511557"
     y="-1.4445732"
     ry="0"
     transform="rotate(5)" />
  <rect
     style="fill:#1a1a1a;stroke:#000000;stroke-width:0"
     id="rect24"
     width="0.38299999"
     height="11.517297"
     x="-68.606979"
     y="6.0023336"
     ry="0"
     transform="matrix(-0.9961947,0.08715574,0.08715574,0.9961947,0,0)" />
  <rect
     style="fill:#1a1a1a;stroke:#000000;stroke-width:0"
     id="rect25"
     width="0.38299999"
     height="11.517297"
     x="69.22686"
     y="-6.0565643"
     ry="0"
     transform="rotate(5)" />
  <rect
     style="fill:#1a1a1a;stroke:#000000;stroke-width:0"
     id="rect26"
     width="0.38299999"
     height="11.517297"
     x="-73.87851"
     y="6.4635324"
     ry="0"
     transform="matrix(-0.9961947,0.08715574,0.08715574,0.9961947,0,0)" />
  <rect
     style="fill:#1a1a1a;stroke:#000000;stroke-width:0"
     id="rect31"
     width="0.38299999"
     height="11.517297"
     x="74.49839"
     y="-6.5177636"
     ry="0"
     transform="rotate(5)" />
  <rect
     style="fill:#1a1a1a;stroke:#000000;stroke-width:0"
     id="rect32"
     width="0.38299999"
     height="11.517297"
     x="-79.15004"
     y="6.9247317"
     ry="0"
     transform="matrix(-0.9961947,0.08715574,0.08715574,0.9961947,0,0)" />
  <rect
     style="fill:#1a1a1a;stroke:#000000;stroke-width:0"
     id="rect33"
     width="0.38299999"
     height="11.517297"
     x="79.76992"
     y="-6.9789629"
     ry="0"
     transform="rotate(5)" />
  <rect
     style="fill:#1a1a1a;stroke:#000000;stroke-width:0"
     id="rect35"
     width="0.38299999"
     height="11.517297"
     x="-84.42157"
     y="7.385931"
     ry="0"
     transform="matrix(-0.9961947,0.08715574,0.08715574,0.9961947,0,0)" />
  <rect
     style="fill:#1a1a1a;stroke:#000000;stroke-width:0"
     id="rect36"
     width="0.38299999"
     height="11.517297"
     x="85.041451"
     y="-7.4401622"
     ry="0"
     transform="rotate(5)" />
  <rect
     style="fill:#1a1a1a;stroke:#000000;stroke-width:0"
     id="rect37"
     width="0.38299999"
     height="11.517297"
     x="-89.6931"
     y="7.8471303"
     ry="0"
     transform="matrix(-0.9961947,0.08715574,0.08715574,0.9961947,0,0)" />
  <rect
     style="fill:#1a1a1a;stroke:#000000;stroke-width:0"
     id="rect38"
     width="0.38299999"
     height="11.517297"
     x="90.312981"
     y="-7.9013615"
     ry="0"
     transform="rotate(5)" />
  <rect
     style="fill:#1a1a1a;stroke:#000000;stroke-width:0"
     id="rect39"
     width="0.38299999"
     height="11.517297"
     x="-94.96463"
     y="8.3083286"
     ry="0"
     transform="matrix(-0.9961947,0.08715574,0.08715574,0.9961947,0,0)" />
  <rect
     style="fill:#1a1a1a;stroke:#000000;stroke-width:0"
     id="rect40"
     width="0.38299999"
     height="11.517297"
     x="95.584511"
     y="-8.3625612"
     ry="0"
     transform="rotate(5)" />
  <rect
     style="fill:#1a1a1a;stroke:#000000;stroke-width:0"
     id="rect41"
     width="0.38299999"
     height="11.517297"
     x="-100.23616"
     y="8.7695284"
     ry="0"
     transform="matrix(-0.9961947,0.08715574,0.08715574,0.9961947,0,0)" />
  <rect
     style="fill:#1a1a1a;stroke:#000000;stroke-width:0"
     id="rect42"
     width="0.38299999"
     height="11.517297"
     x="100.85604"
     y="-8.82376"
     ry="0"
     transform="rotate(5)" />
  <rect
     style="fill:#1a1a1a;stroke:#000000;stroke-width:0"
     id="rect43"
     width="0.38299999"
     height="11.517297"
     x="-105.50769"
     y="9.2307272"
     ry="0"
     transform="matrix(-0.9961947,0.08715574,0.08715574,0.9961947,0,0)" />
  <rect
     style="fill:#1a1a1a;stroke:#000000;stroke-width:0"
     id="rect44"
     width="0.38299999"
     height="11.517297"
     x="106.12758"
     y="-9.2849598"
     ry="0"
     transform="rotate(5)" />
  <rect
     style="fill:#1a1a1a;stroke:#000000;stroke-width:0"
     id="rect45"
     width="0.38299999"
     height="11.517297"
     x="-110.77922"
     y="9.691926"
     ry="0"
     transform="matrix(-0.9961947,0.08715574,0.08715574,0.9961947,0,0)" />
  <rect
     style="fill:#1a1a1a;stroke:#000000;stroke-width:0"
     id="rect46"
     width="0.38299999"
     height="11.517297"
     x="111.39911"
     y="-9.7461586"
     ry="0"
     transform="rotate(5)" />
  <rect
     style="fill:#1a1a1a;stroke:#000000;stroke-width:0"
     id="rect47"
     width="0.38299999"
     height="11.517297"
     x="-116.05075"
     y="10.153125"
     ry="0"
     transform="matrix(-0.9961947,0.08715574,0.08715574,0.9961947,0,0)" />
  <rect
     style="fill:#1a1a1a;stroke:#000000;stroke-width:0"
     id="rect48"
     width="0.38299999"
     height="11.517297"
     x="116.67063"
     y="-10.207357"
     ry="0"
     transform="rotate(5)" />
  <rect
     style="fill:#1a1a1a;stroke:#000000;stroke-width:0"
     id="rect49"
     width="0.38299999"
     height="11.517297"
     x="-121.32228"
     y="10.614325"
     ry="0"
     transform="matrix(-0.9961947,0.08715574,0.08715574,0.9961947,0,0)" />
  <rect
     style="fill:#1a1a1a;stroke:#000000;stroke-width:0"
     id="rect50"
     width="0.38299999"
     height="11.517297"
     x="121.94217"
     y="-10.668557"
     ry="0"
     transform="rotate(5)" />
  <rect
     style="fill:#1a1a1a;stroke:#000000;stroke-width:0"
     id="rect51"
     width="0.38299999"
     height="11.517297"
     x="-126.59382"
     y="11.075524"
     ry="0"
     transform="matrix(-0.9961947,0.08715574,0.08715574,0.9961947,0,0)" />
  <rect
     style="fill:#1a1a1a;stroke:#000000;stroke-width:0"
     id="rect52"
     width="0.38299999"
     height="11.517297"
     x="127.2137"
     y="-11.129756"
     ry="0"
     transform="rotate(5)" />
  <rect
     style="fill:#1a1a1a;stroke:#000000;stroke-width:0"
     id="rect53"
     width="0.38299999"
     height="11.517297"
     x="-131.86536"
     y="11.536723"
     ry="0"
     transform="matrix(-0.9961947,0.08715574,0.08715574,0.9961947,0,0)" />
  <rect
     style="fill:#1a1a1a;stroke:#000000;stroke-width:0"
     id="rect54"
     width="0.38299999"
     height="11.517297"
     x="132.48523"
     y="-11.590956"
     ry="0"
     transform="rotate(5)" />
  <rect
     style="fill:#1a1a1a;stroke:#000000;stroke-width:0"
     id="rect55"
     width="0.38299999"
     height="11.517297"
     x="-137.13689"
     y="11.997923"
     ry="0"
     transform="matrix(-0.9961947,0.08715574,0.08715574,0.9961947,0,0)" />
  <rect
     style="fill:#1a1a1a;stroke:#000000;stroke-width:0"
     id="rect56"
     width="0.38299999"
     height="11.517297"
     x="137.75677"
     y="-12.052155"
     ry="0"
     transform="rotate(5)" />
  <rect
     style="fill:#1a1a1a;stroke:#000000;stroke-width:0"
     id="rect57"
     width="0.38299999"
     height="11.517297"
     x="-142.40842"
     y="12.459123"
     ry="0"
     transform="matrix(-0.9961947,0.08715574,0.08715574,0.9961947,0,0)" />
  <rect
     style="fill:#1a1a1a;stroke:#000000;stroke-width:0"
     id="rect58"
     width="0.38299999"
     height="11.517297"
     x="143.02831"
     y="-12.513354"
     ry="0"
     transform="rotate(5)" />
  <rect
     style="fill:#1a1a1a;stroke:#000000;stroke-width:0"
     id="rect59"
     width="0.38299999"
     height="11.517297"
     x="-147.67995"
     y="12.920321"
     ry="0"
     transform="matrix(-0.9961947,0.08715574,0.08715574,0.9961947,0,0)" />
  <rect
     style="fill:#1a1a1a;stroke:#000000;stroke-width:0"
     id="rect60"
     width="0.38299999"
     height="11.517297"
     x="148.29984"
     y="-12.974554"
     ry="0"
     transform="rotate(5)" />
  <rect
     style="fill:#1a1a1a;stroke:#000000;stroke-width:0"
     id="rect61"
     width="0.38299999"
     height="11.517297"
     x="-152.95149"
     y="13.381522"
     ry="0"
     transform="matrix(-0.9961947,0.08715574,0.08715574,0.9961947,0,0)" />
  <rect
     style="fill:#1a1a1a;stroke:#000000;stroke-width:0"
     id="rect62"
     width="0.38299999"
     height="11.517297"
     x="153.57137"
     y="-13.435753"
     ry="0"
     transform="rotate(5)" />
  <rect
     style="fill:#1a1a1a;stroke:#000000;stroke-width:0"
     id="rect63"
     width="0.38299999"
     height="11.517297"
     x="-158.22302"
     y="13.842721"
     ry="0"
     transform="matrix(-0.9961947,0.08715574,0.08715574,0.9961947,0,0)" />
  <rect
     style="fill:#1a1a1a;stroke:#000000;stroke-width:0"
     id="rect64"
     width="0.38299999"
     height="11.517297"
     x="158.8429"
     y="-13.896953"
     ry="0"
     transform="rotate(5)" />
  <rect
     style="fill:#1a1a1a;stroke:#000000;stroke-width:0"
     id="rect65"
     width="0.38299999"
     height="11.517297"
     x="-163.49455"
     y="14.30392"
     ry="0"
     transform="matrix(-0.9961947,0.08715574,0.08715574,0.9961947,0,0)" />
  <rect
     style="fill:#1a1a1a;stroke:#000000;stroke-width:0"
     id="rect66"
     width="0.38299999"
     height="11.517297"
     x="164.11444"
     y="-14.358152"
     ry="0"
     transform="rotate(5)" />
  <path
     id="path1"
     style="display:inline;fill:#c0c4d6;fill-opacity:1;stroke-width:0.206982"
     d="M 9.67118,35.027581 V 8.0509312 H 171.02322 V 35.027581 Z" />
  <path
     id="path2"
     style="fill:#c0c4d6;fill-opacity:1;stroke-width:0.209578"
     d="m 0,11.10492 v 34.357015 l 102.60379,20.576313 -14.810664,532.754722 52.410254,0.23409 -14.05911,-533.205235 54.5498,-20.3599 V 11.104921 h -7.63519 v 26.97665 H 7.63519 v -26.97665 z"
     sodipodi:nodetypes="ccccccccccccc" />
  <path
     id="path3"
     style="fill:#2c3349;fill-opacity:1;stroke-width:0.118898"
     d="m 49.11848,13.14091 v 16.7967 h 85.51142 v -16.7967 z" />
  <path
     id="path4"
     style="fill:#2c3349;fill-opacity:1;stroke-width:0.0648639"
     d="m 139.97452,13.14091 v 16.7967 h 25.44973 v -16.7967 z" />
  <path
     id="path5"
     style="fill:#62657b;fill-opacity:1;stroke-width:0.0879226"
     d="m 53.29657,16.44939 v 10.179741 h 77.15524 V 16.44939 Z" />
  <path
     id="path6"
     style="fill:#62657b;fill-opacity:1;stroke-width:0.0422482"
     d="m 143.8938,16.44939 v 10.179741 h 17.81478 V 16.44939 Z" />
  <path
     id="path20"
     style="fill:#09ae79;fill-opacity:1;stroke:#000000;stroke-width:1;stroke-dasharray:none;stroke-opacity:1"
     d="m 14.761159,19.226324 v 4.625867 a 6.0854165,6.0854165 0 0 0 6.085417,6.085417 h 18.623361 a 6.0854165,6.0854165 0 0 0 6.085417,-6.085417 V 19.226324 A 6.0854165,6.0854165 0 0 0 39.469937,13.140908 H 20.846575 a 6.0854165,6.0854165 0 0 0 -6.085416,6.085416 z" />
  <text
     xml:space="preserve"
     transform="matrix(0.26458333,0,0,0.26458333,-23.92274,-121.99811)"
     id="line-text"
     style="font-style:normal;font-variant:normal;font-weight:bold;font-stretch:normal;font-size:48px;font-family:Arial;-inkscape-font-specification:'Arial Bold';text-align:start;writing-mode:lr-tb;direction:ltr;white-space:pre;shape-inside:url(#rect27);display:inline;fill:#000000;fill-opacity:0;stroke:#000000;stroke-width:0;stroke-dasharray:none;stroke-opacity:1"><tspan
       x="174.10156"
       y="558.80652"
       id="tspan2"><tspan
         style="fill:#ffffff;fill-opacity:1"
         id="tspan1">F4</tspan></tspan></text>
  <text
     xml:space="preserve"
     transform="matrix(0.31828323,0,0,0.31828323,54.30192,79.874595)"
     id="destination-text"
     style="font-style:normal;font-variant:normal;font-weight:normal;font-stretch:normal;font-size:32px;font-family:VT323;-inkscape-font-specification:VT323;text-align:start;letter-spacing:0px;writing-mode:lr-tb;direction:ltr;white-space:pre;shape-inside:url(#rect28);display:inline;fill:#d79796;fill-opacity:1;stroke:#000000;stroke-width:0;stroke-dasharray:none;stroke-opacity:1"><tspan
       x="-2.8847656"
       y="-172.39609"
       id="tspan3">Centraal Station</tspan></text>
  <text
     id="timer-text"
     x="195.754"
     y="17.673239"
     transform="matrix(0.76333365,0,0,1.3100431,145.72754,275.94693)"
     style="font-style:normal;font-variant:normal;font-weight:normal;font-stretch:normal;font-size:12px;font-family:VT323;-inkscape-font-specification:VT323;text-align:start;letter-spacing:0px;writing-mode:lr-tb;direction:ltr;white-space:pre;shape-inside:url(#rect28);display:inline;fill:#d79796;fill-opacity:1;stroke:#000000;stroke-width:0;stroke-dasharray:none;stroke-opacity:1"
     xml:space="preserve"><tspan
       x="-2.8847656"
       y="-190.89609"
       id="tspan4">10:00</tspan></text>
  <circle
     style="fill:#1a1a1a;stroke:#000000;stroke-width:0"
     id="path64"
     cx="46.715603"
     cy="31.829144"
     r="1.4059768" />
  <circle
     style="fill:#1a1a1a;stroke:#000000;stroke-width:0"
     id="circle64"
     cx="137.20296"
     cy="31.829144"
     r="1.4059768" />
  <path
     id="path69"
     style="display:inline;fill:#cdcfde;fill-opacity:1;stroke-width:0.0568003"
     d="M 9.7438897,10.268102 V 8.235773 H 171.03244 v 2.032329 z" />
  <rect
     style="fill:#ffffff;fill-opacity:1;stroke-width:0"
     id="rect4"
     width="26.528589"
     height="4.2752686"
     x="139.54913"
     y="8.9472628" />
  <text
     xml:space="preserve"
     transform="matrix(0.26458333,0,0,0.26458333,11.89781,29.469169)"
     id="text24"
     style="font-style:normal;font-variant:normal;font-weight:bold;font-stretch:normal;font-size:14.6667px;font-family:Constantia;-inkscape-font-specification:'Constantia Bold';text-align:center;letter-spacing:0px;writing-mode:lr-tb;direction:ltr;white-space:pre;shape-inside:url(#rect29);display:inline;fill:#000000;fill-opacity:1;stroke:#000000;stroke-width:0;stroke-dasharray:none;stroke-opacity:1"
     x="0"
     y="0"><tspan
       x="484.88921"
       y="-63.515051"
       id="tspan5">MIN.   /    SEC.</tspan></text>
  <path
     id="path13502-6"
     style="display:inline;fill:#cdcfde;fill-opacity:1;stroke-width:0.0123321"
     d="m 173.04142,13.161982 v -2.032329 h 7.60284 v 2.032329 z" />
  <path
     style="fill:#afb5cc;fill-opacity:1;stroke:none;stroke-width:0;stroke-dasharray:none;stroke-opacity:1"
     d="m 139.93611,598.70742 h -26.27039 l 4.35306,-534.397503 -0.0246,-4.582129 57.54051,-19.110077 5.12246,-29.452273 0.0849,34.235801 -54.71979,20.683986 z"
     id="path13505"
     sodipodi:nodetypes="ccccccccc" />
  <path
     id="path13502-6-6"
     style="display:inline;fill:#cdcfde;fill-opacity:1;stroke-width:0.0123321"
     d="M 0.01860688,13.168546 V 11.136217 H 7.6214469 v 2.032329 z" />
  <rect
     style="fill:#828aaf;fill-opacity:1;stroke:#ffffff;stroke-width:0;stroke-linecap:round;stroke-linejoin:bevel;stroke-opacity:1;paint-order:markers stroke fill"
     id="rect217"
     width="7.6178403"
     height="0.51676434"
     x="0.012538817"
     y="37.840195" />
  <rect
     style="fill:#828aaf;fill-opacity:1;stroke:#ffffff;stroke-width:0;stroke-linecap:round;stroke-linejoin:bevel;stroke-opacity:1;paint-order:markers stroke fill"
     id="rect67"
     width="7.6178403"
     height="0.51676434"
     x="0.012538817"
     y="37.840195" />
  <rect
     style="fill:#828aaf;fill-opacity:1;stroke:#ffffff;stroke-width:0;stroke-linecap:round;stroke-linejoin:bevel;stroke-opacity:1;paint-order:markers stroke fill"
     id="rect68"
     width="7.6178403"
     height="0.51676434"
     x="0.012538817"
     y="37.840195" />
  <rect
     style="fill:#828aaf;fill-opacity:1;stroke:#ffffff;stroke-width:0;stroke-linecap:round;stroke-linejoin:bevel;stroke-opacity:1;paint-order:markers stroke fill"
     id="rect69"
     width="7.6726513"
     height="0.51676434"
     x="173.05009"
     y="37.840195" />
  <rect
     style="fill:#828aaf;fill-opacity:1;stroke:#ffffff;stroke-width:0;stroke-linecap:round;stroke-linejoin:bevel;stroke-opacity:1;paint-order:markers stroke fill"
     id="rect69-2"
     width="23.51433"
     height="0.51676434"
     x="102.58679"
     y="66.044579" />
  <path
     style="fill:#afb5cc;fill-opacity:1;stroke-width:0"
     d="M 7.2271434,37.736526 12.939099,40.238849 158.80089,42.385083 172.11308,38.0042 Z"
     id="path71" />
</svg>
