<?xml version="1.0" encoding="UTF-8" standalone="no"?>
<!-- Created with Inkscape (http://www.inkscape.org/) -->

<svg
   width="180.69408mm"
   height="239.19894mm"
   viewBox="0 0 180.69408 239.19894"
   version="1.1"
   id="svg1"
   xmlns="http://www.w3.org/2000/svg"
   xmlns:svg="http://www.w3.org/2000/svg">
  <defs
     id="defs1">
    <rect
       x="174.10117"
       y="515.57031"
       width="117.34994"
       height="69.255707"
       id="rect27" />
    <rect
       x="-2.8856547"
       y="-201.99583"
       width="528.07483"
       height="145.24461"
       id="rect28" />
    <rect
       x="470.12125"
       y="-76.469849"
       width="125.28551"
       height="44.487179"
       id="rect29" />
  </defs>
  <rect
     style="fill:#828aaf;fill-opacity:1;stroke:#ffffff;stroke-width:0;stroke-linecap:round;stroke-linejoin:bevel;stroke-opacity:1;paint-order:markers stroke fill"
     id="rect218"
     width="7.6178403"
     height="0.51676434"
     x="173.08728"
     y="37.845417" />
  <rect
     style="fill:#828aaf;fill-opacity:1;stroke-width:0"
     id="rect215"
     width="3.6485124"
     height="7.7683063"
     x="170.19513"
     y="18.500164" />
  <rect
     style="display:inline;fill:#828aaf;fill-opacity:1;stroke-width:0"
     id="rect216"
     width="3.6485124"
     height="7.7683063"
     x="6.153439"
     y="18.500164" />
  <rect
     style="fill:#1a1a1a;stroke:#000000;stroke-width:0"
     id="rect6"
     width="0.38299999"
     height="11.517297"
     x="-21.162745"
     y="1.856743"
     ry="0"
     transform="matrix(-0.9961947,0.08715574,0.08715574,0.9961947,0,0)" />
  <rect
     style="fill:#1a1a1a;stroke:#000000;stroke-width:0"
     id="rect7"
     width="0.38299999"
     height="11.517297"
     x="21.783543"
     y="-1.9005703"
     ry="0"
     transform="rotate(5)" />
  <rect
     style="fill:#1a1a1a;stroke:#000000;stroke-width:0"
     id="rect8"
     width="0.38299999"
     height="11.517297"
     x="-26.434275"
     y="2.3179421"
     ry="0"
     transform="matrix(-0.9961947,0.08715574,0.08715574,0.9961947,0,0)" />
  <rect
     style="fill:#1a1a1a;stroke:#000000;stroke-width:0"
     id="rect9"
     width="0.38299999"
     height="11.517297"
     x="27.055073"
     y="-2.3617694"
     ry="0"
     transform="rotate(5)" />
  <rect
     style="fill:#1a1a1a;stroke:#000000;stroke-width:0"
     id="rect10"
     width="0.38299999"
     height="11.517297"
     x="-31.705805"
     y="2.7791412"
     ry="0"
     transform="matrix(-0.9961947,0.08715574,0.08715574,0.9961947,0,0)" />
  <rect
     style="fill:#1a1a1a;stroke:#000000;stroke-width:0"
     id="rect11"
     width="0.38299999"
     height="11.517297"
     x="32.326603"
     y="-2.8229685"
     ry="0"
     transform="rotate(5)" />
  <rect
     style="fill:#1a1a1a;stroke:#000000;stroke-width:0"
     id="rect12"
     width="0.38299999"
     height="11.517297"
     x="-36.977337"
     y="3.2403402"
     ry="0"
     transform="matrix(-0.9961947,0.08715574,0.08715574,0.9961947,0,0)" />
  <rect
     style="fill:#1a1a1a;stroke:#000000;stroke-width:0"
     id="rect13"
     width="0.38299999"
     height="11.517297"
     x="37.598133"
     y="-3.2841678"
     ry="0"
     transform="rotate(5)" />
  <rect
     style="fill:#1a1a1a;stroke:#000000;stroke-width:0"
     id="rect14"
     width="0.38299999"
     height="11.517297"
     x="-42.248867"
     y="3.7015395"
     ry="0"
     transform="matrix(-0.9961947,0.08715574,0.08715574,0.9961947,0,0)" />
  <rect
     style="fill:#1a1a1a;stroke:#000000;stroke-width:0"
     id="rect15"
     width="0.38299999"
     height="11.517297"
     x="42.869663"
     y="-3.7453668"
     ry="0"
     transform="rotate(5)" />
  <rect
     style="fill:#1a1a1a;stroke:#000000;stroke-width:0"
     id="rect16"
     width="0.38299999"
     height="11.517297"
     x="-47.520397"
     y="4.1627388"
     ry="0"
     transform="matrix(-0.9961947,0.08715574,0.08715574,0.9961947,0,0)" />
  <rect
     style="fill:#1a1a1a;stroke:#000000;stroke-width:0"
     id="rect17"
     width="0.38299999"
     height="11.517297"
     x="48.141193"
     y="-4.2065659"
     ry="0"
     transform="rotate(5)" />
  <rect
     style="fill:#1a1a1a;stroke:#000000;stroke-width:0"
     id="rect18"
     width="0.38299999"
     height="11.517297"
     x="-52.791927"
     y="4.6239381"
     ry="0"
     transform="matrix(-0.9961947,0.08715574,0.08715574,0.9961947,0,0)" />
  <rect
     style="fill:#1a1a1a;stroke:#000000;stroke-width:0"
     id="rect19"
     width="0.38299999"
     height="11.517297"
     x="53.412727"
     y="-4.6677651"
     ry="0"
     transform="rotate(5)" />
  <rect
     style="fill:#1a1a1a;stroke:#000000;stroke-width:0"
     id="rect20"
     width="0.38299999"
     height="11.517297"
     x="-58.063457"
     y="5.0851369"
     ry="0"
     transform="matrix(-0.9961947,0.08715574,0.08715574,0.9961947,0,0)" />
  <rect
     style="fill:#1a1a1a;stroke:#000000;stroke-width:0"
     id="rect21"
     width="0.38299999"
     height="11.517297"
     x="58.684258"
     y="-5.1289644"
     ry="0"
     transform="rotate(5)" />
  <rect
     style="fill:#1a1a1a;stroke:#000000;stroke-width:0"
     id="rect22"
     width="0.38299999"
     height="11.517297"
     x="-63.334991"
     y="5.5463362"
     ry="0"
     transform="matrix(-0.9961947,0.08715574,0.08715574,0.9961947,0,0)" />
  <rect
     style="fill:#1a1a1a;stroke:#000000;stroke-width:0"
     id="rect23"
     width="0.38299999"
     height="11.517297"
     x="63.955788"
     y="-5.5901637"
     ry="0"
     transform="rotate(5)" />
  <rect
     style="fill:#1a1a1a;stroke:#000000;stroke-width:0"
     id="rect5"
     width="0.38299999"
     height="11.517297"
     x="-15.891214"
     y="1.3955438"
     ry="0"
     transform="matrix(-0.9961947,0.08715574,0.08715574,0.9961947,0,0)" />
  <rect
     style="fill:#1a1a1a;stroke:#000000;stroke-width:0"
     id="rect34"
     width="0.38299999"
     height="11.517297"
     x="16.512012"
     y="-1.4393711"
     ry="0"
     transform="rotate(5)" />
  <rect
     style="fill:#1a1a1a;stroke:#000000;stroke-width:0"
     id="rect24"
     width="0.38299999"
     height="11.517297"
     x="-68.606522"
     y="6.0075355"
     ry="0"
     transform="matrix(-0.9961947,0.08715574,0.08715574,0.9961947,0,0)" />
  <rect
     style="fill:#1a1a1a;stroke:#000000;stroke-width:0"
     id="rect25"
     width="0.38299999"
     height="11.517297"
     x="69.227318"
     y="-6.0513625"
     ry="0"
     transform="rotate(5)" />
  <rect
     style="fill:#1a1a1a;stroke:#000000;stroke-width:0"
     id="rect26"
     width="0.38299999"
     height="11.517297"
     x="-73.878052"
     y="6.4687343"
     ry="0"
     transform="matrix(-0.9961947,0.08715574,0.08715574,0.9961947,0,0)" />
  <rect
     style="fill:#1a1a1a;stroke:#000000;stroke-width:0"
     id="rect31"
     width="0.38299999"
     height="11.517297"
     x="74.498848"
     y="-6.5125618"
     ry="0"
     transform="rotate(5)" />
  <rect
     style="fill:#1a1a1a;stroke:#000000;stroke-width:0"
     id="rect32"
     width="0.38299999"
     height="11.517297"
     x="-79.149582"
     y="6.9299335"
     ry="0"
     transform="matrix(-0.9961947,0.08715574,0.08715574,0.9961947,0,0)" />
  <rect
     style="fill:#1a1a1a;stroke:#000000;stroke-width:0"
     id="rect33"
     width="0.38299999"
     height="11.517297"
     x="79.770378"
     y="-6.9737611"
     ry="0"
     transform="rotate(5)" />
  <rect
     style="fill:#1a1a1a;stroke:#000000;stroke-width:0"
     id="rect35"
     width="0.38299999"
     height="11.517297"
     x="-84.421112"
     y="7.3911328"
     ry="0"
     transform="matrix(-0.9961947,0.08715574,0.08715574,0.9961947,0,0)" />
  <rect
     style="fill:#1a1a1a;stroke:#000000;stroke-width:0"
     id="rect36"
     width="0.38299999"
     height="11.517297"
     x="85.041908"
     y="-7.4349604"
     ry="0"
     transform="rotate(5)" />
  <rect
     style="fill:#1a1a1a;stroke:#000000;stroke-width:0"
     id="rect37"
     width="0.38299999"
     height="11.517297"
     x="-89.692642"
     y="7.8523321"
     ry="0"
     transform="matrix(-0.9961947,0.08715574,0.08715574,0.9961947,0,0)" />
  <rect
     style="fill:#1a1a1a;stroke:#000000;stroke-width:0"
     id="rect38"
     width="0.38299999"
     height="11.517297"
     x="90.313438"
     y="-7.8961596"
     ry="0"
     transform="rotate(5)" />
  <rect
     style="fill:#1a1a1a;stroke:#000000;stroke-width:0"
     id="rect39"
     width="0.38299999"
     height="11.517297"
     x="-94.964172"
     y="8.3135309"
     ry="0"
     transform="matrix(-0.9961947,0.08715574,0.08715574,0.9961947,0,0)" />
  <rect
     style="fill:#1a1a1a;stroke:#000000;stroke-width:0"
     id="rect40"
     width="0.38299999"
     height="11.517297"
     x="95.584969"
     y="-8.3573589"
     ry="0"
     transform="rotate(5)" />
  <rect
     style="fill:#1a1a1a;stroke:#000000;stroke-width:0"
     id="rect41"
     width="0.38299999"
     height="11.517297"
     x="-100.2357"
     y="8.7747307"
     ry="0"
     transform="matrix(-0.9961947,0.08715574,0.08715574,0.9961947,0,0)" />
  <rect
     style="fill:#1a1a1a;stroke:#000000;stroke-width:0"
     id="rect42"
     width="0.38299999"
     height="11.517297"
     x="100.8565"
     y="-8.8185577"
     ry="0"
     transform="rotate(5)" />
  <rect
     style="fill:#1a1a1a;stroke:#000000;stroke-width:0"
     id="rect43"
     width="0.38299999"
     height="11.517297"
     x="-105.50723"
     y="9.2359295"
     ry="0"
     transform="matrix(-0.9961947,0.08715574,0.08715574,0.9961947,0,0)" />
  <rect
     style="fill:#1a1a1a;stroke:#000000;stroke-width:0"
     id="rect44"
     width="0.38299999"
     height="11.517297"
     x="106.12804"
     y="-9.2797575"
     ry="0"
     transform="rotate(5)" />
  <rect
     style="fill:#1a1a1a;stroke:#000000;stroke-width:0"
     id="rect45"
     width="0.38299999"
     height="11.517297"
     x="-110.77876"
     y="9.6971283"
     ry="0"
     transform="matrix(-0.9961947,0.08715574,0.08715574,0.9961947,0,0)" />
  <rect
     style="fill:#1a1a1a;stroke:#000000;stroke-width:0"
     id="rect46"
     width="0.38299999"
     height="11.517297"
     x="111.39957"
     y="-9.7409563"
     ry="0"
     transform="rotate(5)" />
  <rect
     style="fill:#1a1a1a;stroke:#000000;stroke-width:0"
     id="rect47"
     width="0.38299999"
     height="11.517297"
     x="-116.05029"
     y="10.158327"
     ry="0"
     transform="matrix(-0.9961947,0.08715574,0.08715574,0.9961947,0,0)" />
  <rect
     style="fill:#1a1a1a;stroke:#000000;stroke-width:0"
     id="rect48"
     width="0.38299999"
     height="11.517297"
     x="116.67109"
     y="-10.202155"
     ry="0"
     transform="rotate(5)" />
  <rect
     style="fill:#1a1a1a;stroke:#000000;stroke-width:0"
     id="rect49"
     width="0.38299999"
     height="11.517297"
     x="-121.32182"
     y="10.619527"
     ry="0"
     transform="matrix(-0.9961947,0.08715574,0.08715574,0.9961947,0,0)" />
  <rect
     style="fill:#1a1a1a;stroke:#000000;stroke-width:0"
     id="rect50"
     width="0.38299999"
     height="11.517297"
     x="121.94263"
     y="-10.663355"
     ry="0"
     transform="rotate(5)" />
  <rect
     style="fill:#1a1a1a;stroke:#000000;stroke-width:0"
     id="rect51"
     width="0.38299999"
     height="11.517297"
     x="-126.59336"
     y="11.080727"
     ry="0"
     transform="matrix(-0.9961947,0.08715574,0.08715574,0.9961947,0,0)" />
  <rect
     style="fill:#1a1a1a;stroke:#000000;stroke-width:0"
     id="rect52"
     width="0.38299999"
     height="11.517297"
     x="127.21416"
     y="-11.124554"
     ry="0"
     transform="rotate(5)" />
  <rect
     style="fill:#1a1a1a;stroke:#000000;stroke-width:0"
     id="rect53"
     width="0.38299999"
     height="11.517297"
     x="-131.8649"
     y="11.541925"
     ry="0"
     transform="matrix(-0.9961947,0.08715574,0.08715574,0.9961947,0,0)" />
  <rect
     style="fill:#1a1a1a;stroke:#000000;stroke-width:0"
     id="rect54"
     width="0.38299999"
     height="11.517297"
     x="132.48569"
     y="-11.585753"
     ry="0"
     transform="rotate(5)" />
  <rect
     style="fill:#1a1a1a;stroke:#000000;stroke-width:0"
     id="rect55"
     width="0.38299999"
     height="11.517297"
     x="-137.13643"
     y="12.003125"
     ry="0"
     transform="matrix(-0.9961947,0.08715574,0.08715574,0.9961947,0,0)" />
  <rect
     style="fill:#1a1a1a;stroke:#000000;stroke-width:0"
     id="rect56"
     width="0.38299999"
     height="11.517297"
     x="137.75723"
     y="-12.046953"
     ry="0"
     transform="rotate(5)" />
  <rect
     style="fill:#1a1a1a;stroke:#000000;stroke-width:0"
     id="rect57"
     width="0.38299999"
     height="11.517297"
     x="-142.40796"
     y="12.464325"
     ry="0"
     transform="matrix(-0.9961947,0.08715574,0.08715574,0.9961947,0,0)" />
  <rect
     style="fill:#1a1a1a;stroke:#000000;stroke-width:0"
     id="rect58"
     width="0.38299999"
     height="11.517297"
     x="143.02876"
     y="-12.508152"
     ry="0"
     transform="rotate(5)" />
  <rect
     style="fill:#1a1a1a;stroke:#000000;stroke-width:0"
     id="rect59"
     width="0.38299999"
     height="11.517297"
     x="-147.67949"
     y="12.925524"
     ry="0"
     transform="matrix(-0.9961947,0.08715574,0.08715574,0.9961947,0,0)" />
  <rect
     style="fill:#1a1a1a;stroke:#000000;stroke-width:0"
     id="rect60"
     width="0.38299999"
     height="11.517297"
     x="148.30029"
     y="-12.969352"
     ry="0"
     transform="rotate(5)" />
  <rect
     style="fill:#1a1a1a;stroke:#000000;stroke-width:0"
     id="rect61"
     width="0.38299999"
     height="11.517297"
     x="-152.95103"
     y="13.386724"
     ry="0"
     transform="matrix(-0.9961947,0.08715574,0.08715574,0.9961947,0,0)" />
  <rect
     style="fill:#1a1a1a;stroke:#000000;stroke-width:0"
     id="rect62"
     width="0.38299999"
     height="11.517297"
     x="153.57182"
     y="-13.430551"
     ry="0"
     transform="rotate(5)" />
  <rect
     style="fill:#1a1a1a;stroke:#000000;stroke-width:0"
     id="rect63"
     width="0.38299999"
     height="11.517297"
     x="-158.22256"
     y="13.847923"
     ry="0"
     transform="matrix(-0.9961947,0.08715574,0.08715574,0.9961947,0,0)" />
  <rect
     style="fill:#1a1a1a;stroke:#000000;stroke-width:0"
     id="rect64"
     width="0.38299999"
     height="11.517297"
     x="158.84335"
     y="-13.89175"
     ry="0"
     transform="rotate(5)" />
  <rect
     style="fill:#1a1a1a;stroke:#000000;stroke-width:0"
     id="rect65"
     width="0.38299999"
     height="11.517297"
     x="-163.49409"
     y="14.309122"
     ry="0"
     transform="matrix(-0.9961947,0.08715574,0.08715574,0.9961947,0,0)" />
  <rect
     style="fill:#1a1a1a;stroke:#000000;stroke-width:0"
     id="rect66"
     width="0.38299999"
     height="11.517297"
     x="164.1149"
     y="-14.35295"
     ry="0"
     transform="rotate(5)" />
  <path
     id="path1"
     style="display:inline;fill:#c0c4d6;fill-opacity:1;stroke-width:0.206982"
     d="M 9.67118,35.032803 V 8.056153 h 161.35204 v 26.97665 z" />
  <path
     id="path2"
     style="fill:#c0c4d6;fill-opacity:1;stroke-width:0.209578"
     d="m 0,11.110142 v 34.357015 l 102.60379,20.38959 -4.22733,173.108113 31.24358,0.23409 -3.47577,-173.371903 54.5498,-20.3599 V 11.110143 h -7.63519 v 26.97665 H 7.63519 v -26.97665 z" />
  <path
     id="path3"
     style="fill:#2c3349;fill-opacity:1;stroke-width:0.118898"
     d="m 49.11848,13.146132 v 16.7967 h 85.51142 v -16.7967 z" />
  <path
     id="path4"
     style="fill:#2c3349;fill-opacity:1;stroke-width:0.0648639"
     d="m 139.97452,13.146132 v 16.7967 h 25.44973 v -16.7967 z" />
  <path
     id="path5"
     style="fill:#62657b;fill-opacity:1;stroke-width:0.0879226"
     d="m 53.29657,16.454612 v 10.179741 h 77.15524 V 16.454612 Z" />
  <path
     id="path6"
     style="fill:#62657b;fill-opacity:1;stroke-width:0.0422482"
     d="m 143.8938,16.454612 v 10.179741 h 17.81478 V 16.454612 Z" />
  <path
     id="path20"
     style="fill:#09ae79;fill-opacity:1;stroke:#000000;stroke-width:1;stroke-dasharray:none;stroke-opacity:1"
     d="m 14.761159,19.231546 v 4.625867 a 6.0854165,6.0854165 0 0 0 6.085417,6.085417 h 18.623361 a 6.0854165,6.0854165 0 0 0 6.085417,-6.085417 V 19.231546 A 6.0854165,6.0854165 0 0 0 39.469937,13.14613 H 20.846575 a 6.0854165,6.0854165 0 0 0 -6.085416,6.085416 z" />
  <text
     xml:space="preserve"
     transform="matrix(0.26458333,0,0,0.26458333,-23.92274,-121.99289)"
     id="line-text"
     style="font-style:normal;font-variant:normal;font-weight:bold;font-stretch:normal;font-size:48px;font-family:Arial;-inkscape-font-specification:'Arial Bold';text-align:start;writing-mode:lr-tb;direction:ltr;white-space:pre;shape-inside:url(#rect27);display:inline;fill:#000000;fill-opacity:0;stroke:#000000;stroke-width:0;stroke-dasharray:none;stroke-opacity:1"><tspan
       x="174.10156"
       y="558.80652"
       id="tspan5"><tspan
         style="fill:#ffffff;fill-opacity:1"
         id="tspan3">F4</tspan></tspan></text>
  <text
     xml:space="preserve"
     transform="matrix(0.31828323,0,0,0.31828323,54.30192,79.879817)"
     id="destination-text"
     style="font-style:normal;font-variant:normal;font-weight:normal;font-stretch:normal;font-size:32px;font-family:VT323;-inkscape-font-specification:VT323;text-align:start;letter-spacing:0px;writing-mode:lr-tb;direction:ltr;white-space:pre;shape-inside:url(#rect28);display:inline;fill:#d79796;fill-opacity:1;stroke:#000000;stroke-width:0;stroke-dasharray:none;stroke-opacity:1"><tspan
       x="-2.8847656"
       y="-172.39609"
       id="tspan6">Centraal Station</tspan></text>
  <text
     id="timer-text"
     x="195.754"
     y="17.673239"
     transform="matrix(0.76333365,0,0,1.3100431,145.72754,275.95215)"
     style="font-style:normal;font-variant:normal;font-weight:normal;font-stretch:normal;font-size:12px;font-family:VT323;-inkscape-font-specification:VT323;text-align:start;letter-spacing:0px;writing-mode:lr-tb;direction:ltr;white-space:pre;shape-inside:url(#rect28);display:inline;fill:#d79796;fill-opacity:1;stroke:#000000;stroke-width:0;stroke-dasharray:none;stroke-opacity:1"
     xml:space="preserve"><tspan
       x="-2.8847656"
       y="-190.89609"
       id="tspan8">10:00</tspan></text>
  <circle
     style="fill:#1a1a1a;stroke:#000000;stroke-width:0"
     id="path64"
     cx="46.715603"
     cy="31.834366"
     r="1.4059768" />
  <circle
     style="fill:#1a1a1a;stroke:#000000;stroke-width:0"
     id="circle64"
     cx="137.20296"
     cy="31.834366"
     r="1.4059768" />
  <path
     id="path69"
     style="display:inline;fill:#cdcfde;fill-opacity:1;stroke-width:0.0568003"
     d="M 9.7438897,10.273324 V 8.2409948 H 171.03244 v 2.0323292 z" />
  <path
     id="path13500"
     style="display:inline;fill:#afb5cc;fill-opacity:1;stroke-width:0.0543797"
     d="m 9.67118,35.032803 161.35204,-1.862072 v 1.862072 z" />
  <rect
     style="fill:#ffffff;fill-opacity:1;stroke-width:0"
     id="rect4"
     width="26.528589"
     height="4.2752686"
     x="139.54913"
     y="8.9524851" />
  <text
     xml:space="preserve"
     transform="matrix(0.26458333,0,0,0.26458333,11.89781,29.474391)"
     id="text24"
     style="font-style:normal;font-variant:normal;font-weight:bold;font-stretch:normal;font-size:14.6667px;font-family:Constantia;-inkscape-font-specification:'Constantia Bold';text-align:center;letter-spacing:0px;writing-mode:lr-tb;direction:ltr;white-space:pre;shape-inside:url(#rect29);display:inline;fill:#000000;fill-opacity:1;stroke:#000000;stroke-width:0;stroke-dasharray:none;stroke-opacity:1"
     x="0"
     y="0"><tspan
       x="484.88921"
       y="-63.515051"
       id="tspan9">MIN.   /    SEC.</tspan></text>
  <path
     id="path13502-6"
     style="display:inline;fill:#cdcfde;fill-opacity:1;stroke-width:0.0123321"
     d="m 173.04142,13.167204 v -2.032329 h 7.60284 v 2.032329 z" />
  <path
     id="path13503"
     style="display:inline;fill:#afb5cc;fill-opacity:1;stroke-width:0.0242226"
     d="m 168.81343,35.032803 2.20979,-26.97665 v 26.97665 z" />
  <path
     style="fill:#afb5cc;fill-opacity:1;stroke:none;stroke-width:0;stroke-dasharray:none;stroke-opacity:1"
     d="M 129.35277,238.87931 H 118.95739 V 66.090447 l 60.04495,-22.38512 1.65477,-32.534667 0.0849,34.235801 -54.71979,20.683986 z"
     id="path13505" />
  <path
     id="path13502-6-6"
     style="display:inline;fill:#cdcfde;fill-opacity:1;stroke-width:0.0123321"
     d="M 0.01860688,13.173768 V 11.141439 H 7.6214469 v 2.032329 z" />
  <rect
     style="fill:#828aaf;fill-opacity:1;stroke:#ffffff;stroke-width:0;stroke-linecap:round;stroke-linejoin:bevel;stroke-opacity:1;paint-order:markers stroke fill"
     id="rect217"
     width="7.6178403"
     height="0.51676434"
     x="0.012538817"
     y="37.845417" />
  <rect
     style="fill:#828aaf;fill-opacity:1;stroke:#ffffff;stroke-width:0;stroke-linecap:round;stroke-linejoin:bevel;stroke-opacity:1;paint-order:markers stroke fill"
     id="rect67"
     width="7.6178403"
     height="0.51676434"
     x="0.012538817"
     y="37.845417" />
  <rect
     style="fill:#828aaf;fill-opacity:1;stroke:#ffffff;stroke-width:0;stroke-linecap:round;stroke-linejoin:bevel;stroke-opacity:1;paint-order:markers stroke fill"
     id="rect68"
     width="7.6178403"
     height="0.51676434"
     x="0.012538817"
     y="37.845417" />
  <rect
     style="fill:#828aaf;fill-opacity:1;stroke:#ffffff;stroke-width:0;stroke-linecap:round;stroke-linejoin:bevel;stroke-opacity:1;paint-order:markers stroke fill"
     id="rect69"
     width="7.6726513"
     height="0.51676434"
     x="173.05009"
     y="37.845417" />
</svg>
