<?xml version="1.0" encoding="UTF-8" standalone="no"?>
<!-- Created with Inkscape (http://www.inkscape.org/) -->

<svg
   width="180.69408mm"
   height="239.19894mm"
   viewBox="0 0 180.69408 239.19894"
   version="1.1"
   id="svg1"
   xmlns="http://www.w3.org/2000/svg"
   xmlns:svg="http://www.w3.org/2000/svg">
  <defs
     id="defs1">
    <rect
       x="174.10117"
       y="515.57031"
       width="117.34994"
       height="69.255707"
       id="rect27" />
    <rect
       x="-2.8856547"
       y="-201.99583"
       width="528.07483"
       height="145.24461"
       id="rect28" />
    <rect
       x="470.12125"
       y="-76.469849"
       width="125.28551"
       height="44.487179"
       id="rect29" />
  </defs>
  <rect
     style="fill:#828aaf;fill-opacity:1;stroke-width:0"
     id="rect215"
     width="3.6485124"
     height="7.7683063"
     x="170.19513"
     y="18.500164" />
  <rect
     style="display:inline;fill:#828aaf;fill-opacity:1;stroke-width:0"
     id="rect216"
     width="3.6485124"
     height="7.7683063"
     x="6.153439"
     y="18.500164" />
  <rect
     style="fill:#1a1a1a;stroke:#000000;stroke-width:0"
     id="rect34"
     width="0.8997888"
     height="11.517297"
     x="15.813946"
     y="-1.7529297e-07" />
  <rect
     style="fill:#1a1a1a;stroke:#000000;stroke-width:0"
     id="rect36"
     width="0.8997888"
     height="11.517297"
     x="21.105602"
     y="-11.517296"
     transform="scale(1,-1)" />
  <rect
     style="fill:#1a1a1a;stroke:#000000;stroke-width:0"
     id="rect37"
     width="0.8997888"
     height="11.517297"
     x="26.397259"
     y="-11.517296"
     transform="scale(1,-1)" />
  <rect
     style="fill:#1a1a1a;stroke:#000000;stroke-width:0"
     id="rect38"
     width="0.8997888"
     height="11.517297"
     x="31.688915"
     y="-11.517296"
     transform="scale(1,-1)" />
  <rect
     style="fill:#1a1a1a;stroke:#000000;stroke-width:0"
     id="rect39"
     width="0.8997888"
     height="11.517297"
     x="36.980572"
     y="-11.517296"
     transform="scale(1,-1)" />
  <rect
     style="fill:#1a1a1a;stroke:#000000;stroke-width:0"
     id="rect40"
     width="0.8997888"
     height="11.517297"
     x="42.272228"
     y="-11.517296"
     transform="scale(1,-1)" />
  <rect
     style="fill:#1a1a1a;stroke:#000000;stroke-width:0"
     id="rect41"
     width="0.8997888"
     height="11.517297"
     x="47.563885"
     y="-11.517296"
     transform="scale(1,-1)" />
  <rect
     style="fill:#1a1a1a;stroke:#000000;stroke-width:0"
     id="rect42"
     width="0.8997888"
     height="11.517297"
     x="52.855541"
     y="-11.517296"
     transform="scale(1,-1)" />
  <rect
     style="fill:#1a1a1a;stroke:#000000;stroke-width:0"
     id="rect43"
     width="0.8997888"
     height="11.517297"
     x="58.147198"
     y="-11.517296"
     transform="scale(1,-1)" />
  <rect
     style="fill:#1a1a1a;stroke:#000000;stroke-width:0"
     id="rect44"
     width="0.8997888"
     height="11.517297"
     x="63.438854"
     y="-11.517296"
     transform="scale(1,-1)" />
  <rect
     style="fill:#1a1a1a;stroke:#000000;stroke-width:0"
     id="rect45"
     width="0.8997888"
     height="11.517297"
     x="68.730507"
     y="-11.517296"
     transform="scale(1,-1)" />
  <rect
     style="fill:#1a1a1a;stroke:#000000;stroke-width:0"
     id="rect46"
     width="0.8997888"
     height="11.517297"
     x="74.022163"
     y="-11.517296"
     transform="scale(1,-1)" />
  <rect
     style="fill:#1a1a1a;stroke:#000000;stroke-width:0"
     id="rect47"
     width="0.8997888"
     height="11.517297"
     x="79.31382"
     y="-11.517296"
     transform="scale(1,-1)" />
  <rect
     style="fill:#1a1a1a;stroke:#000000;stroke-width:0"
     id="rect48"
     width="0.8997888"
     height="11.517297"
     x="84.605476"
     y="-11.517296"
     transform="scale(1,-1)" />
  <rect
     style="fill:#1a1a1a;stroke:#000000;stroke-width:0"
     id="rect49"
     width="0.8997888"
     height="11.517297"
     x="89.897133"
     y="-11.517296"
     transform="scale(1,-1)" />
  <rect
     style="fill:#1a1a1a;stroke:#000000;stroke-width:0"
     id="rect50"
     width="0.8997888"
     height="11.517297"
     x="95.188789"
     y="-11.517296"
     transform="scale(1,-1)" />
  <rect
     style="fill:#1a1a1a;stroke:#000000;stroke-width:0"
     id="rect51"
     width="0.8997888"
     height="11.517297"
     x="100.48045"
     y="-11.517296"
     transform="scale(1,-1)" />
  <rect
     style="fill:#1a1a1a;stroke:#000000;stroke-width:0"
     id="rect52"
     width="0.8997888"
     height="11.517297"
     x="105.7721"
     y="-11.517296"
     transform="scale(1,-1)" />
  <rect
     style="fill:#1a1a1a;stroke:#000000;stroke-width:0"
     id="rect53"
     width="0.8997888"
     height="11.517297"
     x="111.06376"
     y="-11.517296"
     transform="scale(1,-1)" />
  <rect
     style="fill:#1a1a1a;stroke:#000000;stroke-width:0"
     id="rect54"
     width="0.8997888"
     height="11.517297"
     x="116.35542"
     y="-11.517296"
     transform="scale(1,-1)" />
  <rect
     style="fill:#1a1a1a;stroke:#000000;stroke-width:0"
     id="rect55"
     width="0.8997888"
     height="11.517297"
     x="121.64707"
     y="-11.517296"
     transform="scale(1,-1)" />
  <rect
     style="fill:#1a1a1a;stroke:#000000;stroke-width:0"
     id="rect56"
     width="0.8997888"
     height="11.517297"
     x="126.93873"
     y="-11.517296"
     transform="scale(1,-1)" />
  <rect
     style="fill:#1a1a1a;stroke:#000000;stroke-width:0"
     id="rect57"
     width="0.8997888"
     height="11.517297"
     x="132.23039"
     y="-11.517296"
     transform="scale(1,-1)" />
  <rect
     style="fill:#1a1a1a;stroke:#000000;stroke-width:0"
     id="rect58"
     width="0.8997888"
     height="11.517297"
     x="137.52205"
     y="-11.517296"
     transform="scale(1,-1)" />
  <rect
     style="fill:#1a1a1a;stroke:#000000;stroke-width:0"
     id="rect59"
     width="0.8997888"
     height="11.517297"
     x="142.81371"
     y="-11.517296"
     transform="scale(1,-1)" />
  <rect
     style="fill:#1a1a1a;stroke:#000000;stroke-width:0"
     id="rect60"
     width="0.8997888"
     height="11.517297"
     x="148.10536"
     y="-11.517296"
     transform="scale(1,-1)" />
  <rect
     style="fill:#1a1a1a;stroke:#000000;stroke-width:0"
     id="rect61"
     width="0.8997888"
     height="11.517297"
     x="153.39702"
     y="-11.517296"
     transform="scale(1,-1)" />
  <rect
     style="fill:#1a1a1a;stroke:#000000;stroke-width:0"
     id="rect62"
     width="0.8997888"
     height="11.517297"
     x="158.68867"
     y="-11.517296"
     transform="scale(1,-1)" />
  <rect
     style="fill:#1a1a1a;stroke:#000000;stroke-width:0"
     id="rect63"
     width="0.8997888"
     height="11.517297"
     x="163.98033"
     y="-11.517296"
     transform="scale(1,-1)" />
  <path
     id="path1"
     style="display:inline;fill:#c0c4d6;fill-opacity:1;stroke-width:0.206982"
     d="M 9.67118,35.032803 V 8.056153 h 161.35204 v 26.97665 z" />
  <path
     id="path2"
     style="fill:#c0c4d6;fill-opacity:1;stroke-width:0.209578"
     d="m 0,11.110142 v 34.357015 l 102.60379,20.38959 -4.22733,173.108113 31.24358,0.23409 -3.47577,-173.371903 54.5498,-20.3599 V 11.110143 h -7.63519 v 26.97665 H 7.63519 v -26.97665 z" />
  <path
     id="path3"
     style="fill:#2c3349;fill-opacity:1;stroke-width:0.118898"
     d="m 49.11848,13.146132 v 16.7967 h 85.51142 v -16.7967 z" />
  <path
     id="path4"
     style="fill:#2c3349;fill-opacity:1;stroke-width:0.0648639"
     d="m 139.97452,13.146132 v 16.7967 h 25.44973 v -16.7967 z" />
  <path
     id="path5"
     style="fill:#62657b;fill-opacity:1;stroke-width:0.0879226"
     d="m 53.29657,16.454612 v 10.179741 h 77.15524 V 16.454612 Z" />
  <path
     id="path6"
     style="fill:#62657b;fill-opacity:1;stroke-width:0.0422482"
     d="m 143.8938,16.454612 v 10.179741 h 17.81478 V 16.454612 Z" />
  <path
     id="path20"
     style="fill:#09ae79;fill-opacity:1;stroke:#000000;stroke-width:1;stroke-dasharray:none;stroke-opacity:1"
     d="m 14.761159,19.231546 v 4.625867 a 6.0854165,6.0854165 0 0 0 6.085417,6.085417 h 18.623361 a 6.0854165,6.0854165 0 0 0 6.085417,-6.085417 V 19.231546 A 6.0854165,6.0854165 0 0 0 39.469937,13.14613 H 20.846575 a 6.0854165,6.0854165 0 0 0 -6.085416,6.085416 z" />
  <text
     xml:space="preserve"
     transform="matrix(0.26458333,0,0,0.26458333,-23.92274,-121.99289)"
     id="line-text"
     style="font-style:normal;font-variant:normal;font-weight:bold;font-stretch:normal;font-size:48px;font-family:Arial;-inkscape-font-specification:'Arial Bold';text-align:start;writing-mode:lr-tb;direction:ltr;white-space:pre;shape-inside:url(#rect27);display:inline;fill:#000000;fill-opacity:0;stroke:#000000;stroke-width:0;stroke-dasharray:none;stroke-opacity:1"><tspan
       x="174.10156"
       y="558.80652"
       id="tspan5"><tspan
         style="fill:#ffffff;fill-opacity:1"
         id="tspan3">F4</tspan></tspan></text>
  <text
     xml:space="preserve"
     transform="matrix(0.31828323,0,0,0.31828323,54.30192,79.879817)"
     id="destination-text"
     style="font-style:normal;font-variant:normal;font-weight:normal;font-stretch:normal;font-size:32px;font-family:VT323;-inkscape-font-specification:VT323;text-align:start;letter-spacing:0px;writing-mode:lr-tb;direction:ltr;white-space:pre;shape-inside:url(#rect28);display:inline;fill:#d79796;fill-opacity:1;stroke:#000000;stroke-width:0;stroke-dasharray:none;stroke-opacity:1"><tspan
       x="-2.8847656"
       y="-172.39609"
       id="tspan6">Centraal Station</tspan></text>
  <text
     id="timer-text"
     x="195.754"
     y="17.673239"
     transform="matrix(0.76333365,0,0,1.3100431,145.72754,275.95215)"
     style="font-style:normal;font-variant:normal;font-weight:normal;font-stretch:normal;font-size:12px;font-family:VT323;-inkscape-font-specification:VT323;text-align:start;letter-spacing:0px;writing-mode:lr-tb;direction:ltr;white-space:pre;shape-inside:url(#rect28);display:inline;fill:#d79796;fill-opacity:1;stroke:#000000;stroke-width:0;stroke-dasharray:none;stroke-opacity:1"
     xml:space="preserve"><tspan
       x="-2.8847656"
       y="-190.89609"
       id="tspan8">10:00</tspan></text>
  <circle
     style="fill:#1a1a1a;stroke:#000000;stroke-width:0"
     id="path64"
     cx="46.715603"
     cy="31.834366"
     r="1.4059768" />
  <circle
     style="fill:#1a1a1a;stroke:#000000;stroke-width:0"
     id="circle64"
     cx="137.20296"
     cy="31.834366"
     r="1.4059768" />
  <path
     id="path13500"
     style="display:inline;fill:#afb5cc;fill-opacity:1;stroke-width:0.0543797"
     d="m 9.67118,35.032803 161.35204,-1.862072 v 1.862072 z" />
  <text
     xml:space="preserve"
     transform="matrix(0.26458333,0,0,0.26458333,11.89781,29.474391)"
     id="text24"
     style="font-style:normal;font-variant:normal;font-weight:bold;font-stretch:normal;font-size:14.6667px;font-family:Constantia;-inkscape-font-specification:'Constantia Bold';text-align:center;letter-spacing:0px;writing-mode:lr-tb;direction:ltr;white-space:pre;shape-inside:url(#rect29);display:inline;fill:#000000;fill-opacity:1;stroke:#000000;stroke-width:0;stroke-dasharray:none;stroke-opacity:1"
     x="0"
     y="0"><tspan
       x="484.88921"
       y="-63.515051"
       id="tspan9">MIN.   /    SEC.</tspan></text>
  <path
     id="path13502-6"
     style="display:inline;fill:#cdcfde;fill-opacity:1;stroke-width:0.0123321"
     d="m 173.04142,13.167204 v -2.032329 h 7.60284 v 2.032329 z" />
  <path
     id="path13503"
     style="display:inline;fill:#afb5cc;fill-opacity:1;stroke-width:0.0242226"
     d="m 168.81343,35.032803 2.20979,-26.97665 v 26.97665 z" />
  <path
     style="fill:#afb5cc;fill-opacity:1;stroke:none;stroke-width:0;stroke-dasharray:none;stroke-opacity:1"
     d="M 129.35277,238.87931 H 118.95739 V 66.090447 l 57.29656,-21.284021 4.45156,0.417331 -54.68325,20.86669 z"
     id="path13505" />
  <path
     id="path13502-6-6"
     style="display:inline;fill:#cdcfde;fill-opacity:1;stroke-width:0.0123321"
     d="M 0.01860688,13.173768 V 11.141439 H 7.6214469 v 2.032329 z" />
  <rect
     style="fill:#828aaf;fill-opacity:1;stroke:#ffffff;stroke-width:0;stroke-linecap:round;stroke-linejoin:bevel;stroke-opacity:1;paint-order:markers stroke fill"
     id="rect217"
     width="7.6178403"
     height="0.51676434"
     x="0.012538817"
     y="37.845417" />
  <rect
     style="fill:#828aaf;fill-opacity:1;stroke:#ffffff;stroke-width:0;stroke-linecap:round;stroke-linejoin:bevel;stroke-opacity:1;paint-order:markers stroke fill"
     id="rect218"
     width="7.6178403"
     height="0.51676434"
     x="173.08728"
     y="37.845417" />
</svg>
